<?xml version="1.0" standalone="no"?>
<!DOCTYPE svg PUBLIC "-//W3C//DTD SVG 20010904//EN"
 "http://www.w3.org/TR/2001/REC-SVG-20010904/DTD/svg10.dtd">
<svg version="1.0" xmlns="http://www.w3.org/2000/svg"
 width="640.000000pt" height="640.000000pt" viewBox="0 0 640.000000 640.000000"
 preserveAspectRatio="xMidYMid meet">

<g transform="translate(0.000000,640.000000) scale(0.100000,-0.100000)"
fill="#000000" stroke="none">
<path d="M0 3200 l0 -3200 3200 0 3200 0 0 3200 0 3200 -3200 0 -3200 0 0
-3200z m5622 1278 c2 -16 9 -22 21 -20 9 2 17 -2 17 -8 0 -5 -3 -10 -7 -10 -5
0 -18 -3 -31 -6 -17 -5 -21 -3 -17 8 4 10 -2 17 -17 21 -26 7 -58 -17 -58 -45
0 -26 -51 -88 -73 -88 -10 0 -20 -7 -23 -15 -4 -8 -10 -15 -15 -15 -5 0 -18
-9 -29 -20 -11 -11 -29 -20 -39 -20 -11 0 -27 -10 -36 -22 -12 -18 -17 -20
-24 -9 -6 10 -13 11 -27 3 -18 -10 -18 -11 -1 -17 9 -4 17 -13 17 -20 0 -10
-14 -13 -50 -11 -28 2 -53 -1 -56 -6 -3 -4 2 -8 11 -8 9 0 15 -6 12 -12 -2 -8
-17 -12 -35 -10 -24 2 -32 -1 -32 -13 0 -8 -11 -20 -25 -25 -15 -6 -25 -17
-25 -30 0 -13 -7 -20 -20 -20 -13 0 -20 -7 -20 -18 0 -15 -9 -19 -45 -20 -25
-1 -45 2 -45 8 0 5 9 10 21 10 11 0 17 5 14 10 -13 21 -51 10 -69 -20 l-18
-31 26 7 c17 4 26 2 26 -5 0 -18 -107 -64 -136 -58 -16 3 -23 0 -21 -7 2 -6
14 -10 25 -8 35 5 25 -15 -10 -22 -25 -5 -29 -9 -19 -16 12 -7 11 -12 -10 -29
-13 -11 -31 -20 -41 -21 -12 0 -15 -6 -10 -22 4 -15 2 -19 -8 -13 -8 5 -11 3
-8 -6 6 -17 -44 -49 -76 -49 -24 0 -41 -24 -30 -41 3 -5 15 -9 28 -9 12 0 26
-3 30 -7 4 -4 31 -13 59 -19 68 -15 193 -50 288 -80 42 -13 95 -26 118 -30 41
-7 63 -27 54 -51 -6 -16 -57 -17 -86 -1 -26 13 -97 21 -97 9 0 -8 44 -31 60
-31 12 0 140 -124 140 -136 0 -5 14 -22 30 -37 16 -16 27 -34 24 -41 -2 -6 0
-33 5 -60 6 -34 6 -55 -2 -67 -9 -14 -7 -22 7 -38 11 -12 14 -21 9 -21 -6 0
-11 -16 -11 -36 0 -20 -5 -41 -11 -47 -6 -6 -11 -28 -11 -49 0 -27 -5 -40 -20
-48 -11 -6 -17 -16 -13 -26 3 -8 -1 -22 -10 -32 -8 -9 -20 -34 -28 -54 -7 -21
-17 -38 -21 -38 -4 0 -8 -7 -8 -15 0 -11 -8 -15 -26 -13 -32 4 -58 -27 -35
-41 12 -8 12 -12 -2 -26 -9 -9 -20 -28 -23 -42 -5 -18 -12 -23 -25 -20 -11 3
-19 2 -19 -2 0 -8 -144 -107 -187 -130 -12 -6 -28 -10 -34 -9 -7 2 -15 -8 -19
-22 -4 -17 -8 -21 -14 -12 -10 17 -57 5 -77 -21 -10 -12 -23 -18 -32 -14 -9 3
-21 -1 -27 -9 -18 -21 -27 -17 -34 12 -6 21 -9 24 -21 14 -12 -10 -15 -9 -15
3 0 16 -23 22 -147 33 -40 3 -73 10 -73 14 0 5 -8 6 -18 3 -11 -2 -37 3 -58
13 -21 9 -52 18 -69 20 -34 4 -150 15 -180 18 -11 1 -30 7 -41 14 -12 6 -48
15 -80 18 -33 4 -67 11 -77 16 -29 15 -30 4 -7 -47 15 -33 30 -51 51 -58 21
-8 27 -16 24 -28 -3 -10 -1 -20 5 -24 5 -3 10 -16 10 -29 0 -13 12 -31 30 -44
17 -13 30 -28 30 -35 0 -7 13 -26 30 -42 16 -16 30 -38 30 -48 0 -11 8 -26 18
-33 15 -11 15 -16 4 -35 -17 -27 -5 -40 37 -41 25 -1 36 -8 47 -29 19 -38 18
-49 -8 -76 -25 -27 -38 -29 -38 -8 0 8 5 15 11 15 5 0 8 4 4 10 -3 5 -12 7
-20 3 -26 -10 -67 6 -63 25 2 9 -5 22 -16 27 -11 6 -26 28 -34 51 -11 30 -27
48 -59 67 -24 15 -50 27 -58 27 -23 0 -28 20 -9 36 18 14 17 15 -9 9 -32 -7
-70 21 -48 35 7 4 12 11 11 16 -1 5 3 10 8 12 6 2 8 -6 5 -19 -4 -15 -3 -20 5
-15 7 4 12 18 12 32 0 20 -5 24 -29 24 -32 0 -51 18 -31 30 13 8 -9 20 -39 20
-9 0 -32 14 -50 31 -24 21 -41 29 -57 26 -21 -4 -23 -1 -18 19 5 19 1 26 -20
34 -20 7 -26 16 -26 40 0 27 -3 30 -30 30 -27 0 -30 3 -30 34 0 19 -9 46 -22
62 -12 16 -23 31 -25 33 -1 2 -9 -2 -18 -9 -19 -16 -32 -6 -17 13 9 10 5 17
-18 31 -17 9 -35 26 -40 37 -6 10 -19 19 -30 19 -10 0 -22 9 -25 21 -4 12 -12
18 -21 15 -9 -4 -14 2 -14 16 0 16 -3 18 -14 9 -20 -17 -28 2 -11 25 8 10 15
26 15 34 0 20 -35 41 -56 33 -14 -5 -16 -2 -12 15 4 15 0 22 -18 26 -17 5 -24
13 -24 31 0 29 -9 35 -35 24 -11 -4 -14 -8 -7 -8 6 -1 12 -6 12 -12 0 -7 -10
-9 -25 -5 -25 6 -34 -7 -13 -20 8 -5 6 -11 -7 -20 -9 -7 -32 -33 -49 -57 -43
-62 -121 -158 -182 -225 -49 -53 -54 -55 -78 -44 -23 10 -29 8 -51 -14 -14
-14 -28 -39 -32 -55 -3 -16 -11 -29 -18 -29 -7 0 -23 -19 -35 -42 -64 -125
-96 -153 -156 -142 -35 6 -44 18 -21 27 9 4 9 8 -2 15 -10 8 -11 14 -1 32 15
29 5 38 -19 16 -15 -13 -18 -26 -14 -58 5 -35 4 -40 -13 -36 -15 3 -18 11 -16
36 2 35 -13 44 -23 12 -7 -23 -40 -27 -49 -5 -3 9 0 15 9 15 8 0 15 5 15 10 0
6 -5 10 -11 10 -6 0 -9 7 -5 15 3 9 0 15 -9 15 -8 0 -15 5 -15 10 0 18 58 11
69 -7 8 -14 9 -9 4 19 -4 27 -1 41 11 54 21 20 16 50 -6 46 -19 -3 -33 14 -18
23 5 3 8 16 5 28 -9 33 77 119 110 111 18 -4 28 2 50 30 15 20 39 39 54 43
l26 7 -25 6 -25 7 29 12 c21 8 27 16 23 31 -6 21 17 28 29 9 4 -7 10 -7 16 -1
13 13 2 32 -18 32 -8 0 -14 5 -14 10 0 6 6 10 13 10 6 0 22 3 35 6 16 5 22 2
22 -10 0 -9 5 -16 10 -16 6 0 10 4 10 9 0 5 3 17 7 27 4 11 3 15 -5 10 -6 -3
-13 -2 -16 3 -10 16 46 53 71 46 31 -7 29 9 -2 23 -33 15 -31 24 7 42 41 19
48 40 14 40 -38 0 -32 14 14 35 27 12 37 22 31 29 -11 13 10 46 28 46 8 0 7 7
-3 22 -20 28 -20 48 -2 48 10 0 14 11 13 35 -1 27 -4 32 -14 23 -10 -8 -13 -5
-13 16 0 37 -69 128 -92 122 -10 -2 -18 0 -18 5 0 5 -12 14 -26 19 -14 6 -23
14 -19 20 3 5 12 7 20 3 8 -3 15 0 15 6 0 6 -16 11 -35 11 -19 0 -35 5 -35 10
0 6 5 10 10 10 6 0 10 5 10 11 0 6 -9 8 -21 4 -18 -6 -20 -4 -15 13 4 13 1 22
-9 26 -21 8 -19 26 3 27 13 0 12 3 -6 12 -18 8 -28 8 -42 -1 -14 -9 -21 -8
-30 3 -12 15 -10 17 20 19 8 1 15 6 15 13 0 14 -73 73 -91 73 -8 0 -14 11 -14
27 0 14 -3 23 -7 20 -3 -4 -14 0 -24 9 -13 12 -16 21 -9 33 10 20 8 36 -10 73
-10 21 -10 31 -1 41 6 8 9 22 5 31 -6 16 11 46 27 46 5 0 18 -18 29 -40 11
-22 27 -40 35 -40 21 0 19 14 -5 35 -26 23 -25 37 1 54 19 11 24 10 41 -7 11
-10 21 -31 22 -45 4 -36 52 -107 72 -107 10 0 14 -6 11 -14 -3 -8 1 -20 9 -27
22 -18 25 -7 8 26 -11 22 -13 35 -5 52 19 42 101 24 101 -22 0 -14 2 -14 25 1
22 15 25 15 31 0 3 -8 15 -18 27 -22 20 -6 20 -7 2 -20 -18 -13 -18 -15 9 -43
23 -24 34 -29 58 -24 20 4 33 1 39 -8 15 -24 10 -29 -20 -23 -16 3 -31 2 -35
-4 -14 -24 88 -70 111 -50 17 14 31 2 16 -13 -16 -16 -5 -39 18 -39 10 0 19
-7 19 -15 0 -8 -4 -15 -10 -15 -5 0 -10 -4 -10 -10 0 -5 7 -10 15 -10 8 0 15
-6 15 -14 0 -7 7 -19 15 -26 13 -10 15 -9 15 8 0 12 5 24 10 27 6 3 10 1 10
-6 0 -8 7 -5 20 6 11 10 17 22 14 26 -3 5 4 9 15 9 12 0 20 6 19 13 -2 6 5 11
15 9 9 -2 17 3 17 10 0 7 14 21 30 30 17 9 30 24 30 33 0 18 33 53 63 65 21 8
21 9 -5 9 -30 1 -32 4 -42 44 -6 23 -3 30 13 34 11 3 27 16 36 29 8 13 20 24
26 24 6 0 21 8 34 18 16 13 36 18 65 15 40 -3 41 -2 38 23 -3 24 0 27 37 31
51 5 53 8 24 32 l-24 20 48 1 c44 0 60 11 37 25 -17 11 -11 42 10 48 13 3 22
17 26 36 4 21 12 31 24 31 26 0 75 44 90 80 10 23 19 30 41 30 29 0 48 15 27
23 -24 7 11 35 53 42 31 5 38 10 29 20 -6 7 -7 15 -3 18 17 11 83 19 83 11 0
-5 20 -8 45 -6 40 4 45 2 45 -17 0 -26 -37 -65 -64 -66 -79 -5 -80 -5 -68 -17
7 -7 28 -11 47 -10 19 2 35 -2 35 -8 0 -5 -9 -10 -21 -10 -16 0 -19 -4 -14
-22 6 -17 4 -20 -10 -14 -13 5 -16 2 -11 -10 4 -11 -1 -18 -14 -21 -11 -3 -20
-14 -20 -24 0 -10 -5 -21 -10 -24 -6 -4 -8 -15 -5 -26 9 -26 -3 -43 -20 -29
-10 9 -16 3 -25 -25 -8 -24 -18 -35 -31 -35 -13 0 -20 -6 -18 -17 1 -10 0 -22
-1 -28 -1 -5 -3 -17 -4 -25 0 -8 -13 -16 -28 -18 -26 -3 -41 -22 -18 -22 6 0
10 -4 10 -10 0 -5 -6 -10 -14 -10 -7 0 -16 -9 -19 -20 -4 -15 -14 -20 -38 -20
-26 0 -30 -3 -21 -12 18 -18 15 -26 -18 -43 -17 -9 -30 -24 -30 -34 0 -12 -11
-23 -30 -30 -27 -9 -29 -12 -19 -29 10 -16 9 -24 -9 -47 -12 -15 -22 -36 -22
-46 0 -12 -7 -19 -19 -19 -23 0 -71 -41 -71 -60 0 -7 -27 -38 -60 -70 -33 -32
-60 -62 -60 -68 0 -5 10 -13 23 -17 21 -6 21 -7 -8 -20 -16 -8 -24 -14 -17
-15 10 0 12 -10 7 -40 -5 -32 -2 -46 15 -71 13 -17 24 -50 26 -75 5 -63 20
-87 50 -80 26 7 34 -8 9 -18 -13 -4 -14 -10 -5 -26 8 -14 21 -20 45 -20 19 0
35 -4 35 -10 0 -5 -9 -10 -20 -10 -11 0 -20 -5 -20 -11 0 -6 9 -9 20 -6 26 7
35 -9 13 -23 -13 -8 -15 -13 -5 -16 29 -13 41 -35 35 -65 -4 -22 -1 -33 11
-42 10 -7 16 -19 14 -27 -2 -11 5 -14 30 -12 28 2 32 -1 32 -22 0 -13 -6 -26
-12 -29 -7 -2 2 -11 20 -21 17 -9 32 -23 32 -31 0 -8 5 -26 12 -40 8 -19 16
-24 31 -19 14 4 17 3 12 -6 -12 -19 27 -80 55 -87 14 -3 30 -10 36 -15 7 -5
16 -2 24 7 7 8 18 15 24 15 6 0 22 9 36 20 27 21 75 26 86 9 3 -6 17 -8 30 -5
14 4 24 2 24 -4 0 -12 10 -13 28 -1 17 10 5 64 -13 57 -18 -6 -65 46 -65 72 0
23 -16 30 -22 11 -3 -9 -10 -9 -26 0 -27 15 -28 31 -2 38 11 3 20 12 20 19 0
17 20 19 20 2 1 -18 65 -49 77 -37 13 13 62 -6 69 -26 7 -18 36 -20 33 -2 -2
18 12 57 22 57 4 0 10 -4 13 -9 10 -16 95 -53 106 -46 7 4 14 -2 17 -14 3 -14
13 -21 29 -21 12 0 26 -5 29 -11 4 -6 13 -8 21 -5 7 3 16 1 19 -3 5 -10 51 -7
79 4 10 5 26 4 35 -1 32 -18 76 -5 90 26 10 24 19 30 45 30 24 0 38 7 55 31
12 17 20 37 17 44 -3 8 -1 17 5 20 5 4 12 -1 15 -9 3 -9 16 -16 27 -16 20 0
20 0 1 14 -16 13 -17 18 -6 35 6 12 12 28 12 37 0 11 6 14 20 9 14 -5 20 -2
20 10 0 12 6 15 23 11 12 -3 16 -3 10 0 -19 9 -16 61 5 76 21 15 22 59 3 82
-7 8 -10 20 -6 27 9 13 -14 89 -26 89 -19 0 -59 55 -53 74 5 15 2 18 -15 13
-11 -3 -24 -1 -27 4 -3 5 0 9 5 9 6 0 11 5 11 10 0 6 -12 9 -27 8 -22 -2 -29
2 -31 20 -2 12 -10 22 -19 22 -9 0 -13 -6 -9 -15 7 -19 4 -19 -39 5 -20 11
-42 20 -50 20 -8 0 -15 4 -15 9 0 4 -12 9 -27 10 -88 5 -171 4 -195 -2 -17 -5
-31 -2 -41 7 -13 13 -50 13 -87 -1 -13 -5 -43 -7 -70 -4 -5 1 -7 7 -4 15 3 8
-4 16 -18 21 l-23 8 25 4 c36 7 50 23 20 23 -54 0 -66 33 -38 97 11 26 25 51
30 54 6 4 7 15 4 26 -4 12 1 29 13 44 10 13 20 33 22 44 3 11 14 21 26 23 12
2 25 12 28 22 3 11 29 38 58 62 29 23 71 59 94 79 22 21 57 41 75 44 19 4 47
19 62 35 15 16 42 35 61 41 19 7 35 19 35 26 0 7 9 13 19 13 10 0 21 7 25 15
3 9 18 15 39 15 19 0 40 6 46 14 7 8 27 17 44 21 39 7 106 36 127 53 70 58 91
74 97 69 3 -4 15 0 27 8 11 8 42 15 68 15 40 0 52 5 84 35 21 21 44 33 52 30
8 -3 29 4 47 15 17 11 34 18 36 16 11 -9 69 -14 69 -6 0 6 -9 10 -20 10 -11 0
-20 4 -20 9 0 12 29 23 41 15 5 -3 21 4 35 15 14 11 31 18 38 15 7 -3 23 0 37
5 43 17 67 13 71 -11z m73 2 c4 -6 -6 -10 -24 -10 -16 0 -33 5 -36 10 -4 6 6
10 24 10 16 0 33 -4 36 -10z m-4234 -51 c-1 -8 -6 -38 -10 -66 -9 -60 5 -82
55 -87 22 -2 28 -8 27 -25 0 -11 -2 -22 -2 -23 -8 -12 -10 -102 -3 -112 11
-12 22 -77 22 -118 0 -19 5 -28 15 -28 11 0 14 -6 10 -23 -4 -15 3 -35 20 -61
18 -27 23 -42 15 -50 -12 -16 -3 -26 23 -26 16 0 18 -5 15 -30 -3 -16 0 -30 5
-30 5 0 7 -9 4 -20 -3 -13 1 -21 14 -25 10 -4 19 -12 19 -20 0 -7 6 -15 13
-18 9 -3 9 -7 -1 -19 -10 -13 -9 -16 8 -21 11 -3 20 -13 20 -22 0 -12 -5 -15
-20 -10 -21 7 -25 -1 -11 -23 4 -7 14 -12 21 -10 7 2 18 -12 24 -31 7 -19 18
-37 24 -39 7 -2 12 -12 12 -22 0 -10 4 -21 9 -24 8 -5 22 -83 26 -141 1 -11 5
-30 9 -42 5 -15 2 -24 -11 -31 -16 -9 -15 -12 9 -22 18 -8 24 -18 21 -28 -4
-10 -2 -13 5 -8 7 4 12 1 12 -8 0 -9 4 -16 9 -16 16 0 33 29 27 45 -3 9 0 18
7 20 13 6 16 82 3 103 -4 7 -1 19 8 28 23 22 21 47 -3 39 -20 -6 -31 16 -31
64 0 33 35 104 71 142 23 25 27 34 17 40 -7 5 -17 9 -22 9 -5 0 -3 7 4 15 7 8
26 15 43 15 l30 0 -20 23 c-11 12 -26 32 -32 45 -10 20 -9 22 10 22 21 0 21 1
5 19 -15 16 -15 19 -1 31 8 7 15 19 15 27 0 7 7 16 15 19 8 4 15 10 15 15 0 5
-7 9 -15 9 -8 0 -15 -7 -15 -15 0 -8 -4 -15 -10 -15 -16 0 -11 27 6 34 9 3 29
6 44 6 19 0 33 7 40 20 9 17 8 20 -9 20 -11 0 -21 -6 -24 -12 -2 -7 -8 -9 -13
-5 -4 4 -2 18 5 30 10 15 10 22 2 25 -22 7 -12 30 12 25 17 -4 19 -3 7 6 -13
9 -13 14 -1 32 11 19 11 23 -3 31 -20 11 -9 38 15 38 18 0 21 -4 23 -32 1 -18
19 -37 30 -31 4 3 12 0 16 -7 6 -9 13 -9 28 -1 28 15 61 14 78 -3 19 -20 18
-29 -4 -24 -10 3 -27 -1 -37 -8 -18 -13 -17 -14 8 -14 15 0 27 -4 27 -10 0 -5
-5 -10 -11 -10 -7 0 -9 -10 -7 -25 3 -14 2 -28 -3 -31 -12 -7 0 -32 28 -60 14
-14 21 -29 17 -36 -5 -8 -9 -6 -14 6 -3 10 -10 18 -15 18 -42 4 -68 34 -43 50
8 5 3 7 -14 6 -16 -1 -28 -8 -28 -14 0 -17 25 -41 50 -49 23 -7 27 -35 5 -35
-8 0 -15 -7 -15 -15 0 -10 10 -15 30 -15 22 0 28 -4 24 -15 -4 -8 -1 -15 5
-15 14 0 15 -57 1 -65 -5 -3 -10 -15 -10 -26 0 -10 -6 -19 -14 -19 -17 0 -30
-31 -17 -40 6 -3 9 -26 7 -50 -1 -25 2 -51 7 -58 5 -7 7 -16 3 -19 -4 -4 -11
-1 -15 6 -5 8 -17 11 -30 6 -27 -8 -28 -25 -1 -18 18 5 19 2 14 -26 -4 -18 -2
-37 5 -45 9 -10 9 -16 1 -21 -8 -5 -8 -10 0 -20 9 -10 5 -16 -17 -27 -25 -12
-28 -19 -25 -56 2 -36 0 -41 -15 -36 -16 5 -16 4 -3 -8 23 -21 43 -60 33 -67
-12 -9 -14 -42 -3 -73 5 -18 5 -28 -1 -28 -5 0 -9 -9 -9 -20 0 -11 -4 -20 -10
-20 -5 0 -7 -7 -4 -15 3 -8 -4 -28 -16 -45 -21 -30 -22 -32 -4 -45 18 -13 18
-14 -1 -42 -14 -19 -20 -42 -20 -71 1 -35 -1 -41 -15 -37 -30 10 -44 -19 -26
-54 11 -20 12 -32 5 -36 -6 -4 -8 -14 -5 -22 11 -27 -5 -63 -27 -63 -19 0 -19
-1 -4 -18 23 -25 22 -52 -2 -52 -23 0 -37 -16 -20 -22 16 -5 -11 -55 -49 -91
-31 -30 -49 -24 -37 13 8 24 -20 29 -29 5 -3 -8 -10 -15 -17 -15 -6 0 -9 6 -6
14 3 8 -2 16 -14 19 -15 4 -19 0 -19 -20 0 -13 -4 -21 -10 -18 -14 9 -12 48 3
64 10 10 8 12 -8 9 -18 -3 -20 2 -17 37 2 22 8 50 14 63 10 18 9 25 -1 32 -8
4 -11 12 -7 18 3 5 -5 17 -19 26 -24 16 -25 16 -25 -5 0 -14 -5 -19 -17 -17
-14 3 -18 13 -18 44 0 22 -6 48 -14 57 -7 10 -10 17 -5 17 5 0 2 5 -8 10 -12
8 -15 22 -13 60 2 28 0 48 -5 45 -12 -7 -20 37 -9 51 13 16 1 41 -23 48 -16 4
-19 8 -10 18 7 10 7 18 -4 32 -8 11 -14 32 -14 47 0 15 -7 29 -15 33 -23 8
-19 46 5 46 24 0 27 15 4 24 -8 3 -13 10 -10 15 3 4 1 23 -4 41 -6 22 -6 38 0
45 7 9 6 16 -4 24 -8 7 -13 18 -10 26 3 7 1 16 -5 20 -15 9 -14 42 2 48 8 3 6
9 -7 19 -13 11 -17 22 -13 40 4 15 1 33 -8 46 -9 11 -17 33 -19 49 -11 77 -28
138 -43 155 -21 24 -50 23 -63 -2 -15 -29 -40 -177 -33 -196 3 -8 -1 -32 -10
-52 -15 -35 -30 -99 -32 -132 0 -8 -5 -24 -12 -36 -6 -11 -13 -38 -15 -60 -2
-22 -7 -44 -11 -50 -8 -14 3 -54 16 -54 5 0 -2 -12 -18 -26 -25 -23 -26 -26
-10 -38 16 -12 16 -13 1 -19 -12 -5 -16 -20 -16 -62 0 -37 -5 -62 -15 -71 -9
-10 -14 -33 -13 -67 0 -30 -4 -53 -11 -55 -12 -4 -16 -32 -3 -32 9 0 8 -78 -2
-87 -10 -10 -7 -53 4 -53 6 0 10 -4 10 -10 0 -5 -9 -10 -19 -10 -24 0 -30 -17
-20 -55 11 -37 -3 -55 -30 -38 -16 10 -22 8 -37 -8 -23 -26 -31 -24 -49 10
l-15 30 33 3 c17 2 31 8 30 13 -1 6 3 15 8 22 7 7 6 13 0 17 -5 4 -12 2 -16
-4 -3 -5 -15 -10 -26 -10 -19 0 -21 7 -24 70 0 18 -7 26 -23 28 -33 5 -27 22
8 22 35 0 34 -1 15 36 -19 37 -19 63 0 70 18 7 20 24 3 24 -7 0 -14 11 -14 25
-1 15 3 25 12 25 23 0 16 16 -12 29 l-26 11 26 31 c29 34 33 64 12 76 -28 17
-35 46 -19 88 9 22 16 52 16 68 0 28 12 37 20 15 3 -10 7 -10 20 1 19 15 23
41 7 41 -5 0 -10 -4 -10 -10 0 -5 -4 -10 -10 -10 -14 0 -12 37 3 43 9 4 9 8
-2 15 -11 8 -10 14 5 37 15 23 15 28 3 37 -9 6 -10 11 -3 14 7 3 10 29 7 73
-3 58 -1 70 17 86 21 19 27 50 10 60 -18 11 -11 35 13 45 12 5 16 9 10 9 -7 1
-13 8 -13 16 0 17 16 21 22 5 2 -6 9 -6 18 0 12 7 12 12 2 22 -17 17 -15 28 6
28 13 0 14 2 3 9 -7 5 -11 13 -7 19 3 5 0 15 -8 21 -16 13 -4 57 28 105 12 20
17 39 13 62 -5 27 -1 39 16 54 16 16 18 23 9 32 -17 17 -15 28 4 21 14 -5 15
-3 5 15 -17 33 -13 58 13 76 14 8 25 24 25 33 1 23 9 78 11 78 2 0 5 15 13 68
2 9 9 23 15 29 7 7 12 16 12 21 0 5 9 22 20 37 12 18 16 31 10 35 -13 8 30 67
45 61 5 -2 8 -10 6 -17z m4117 3 c-23 -4 -23 -21 -1 -37 9 -7 12 -15 6 -18 -5
-3 -16 2 -25 12 -20 24 -6 64 19 54 17 -7 17 -8 1 -11z m-1850 -124 c-7 -19
-34 -32 -54 -24 -17 6 -16 8 6 21 32 17 53 18 48 3z m-1638 -153 c0 -19 -4
-35 -10 -35 -11 0 -14 53 -3 63 11 12 13 8 13 -28z m90 -14 c0 -12 -20 -25
-27 -18 -7 7 6 27 18 27 5 0 9 -4 9 -9z m2960 -41 c0 -5 -4 -10 -10 -10 -5 0
-10 5 -10 10 0 6 5 10 10 10 6 0 10 -4 10 -10z m-180 -130 c0 -5 -4 -10 -10
-10 -5 0 -10 5 -10 10 0 6 5 10 10 10 6 0 10 -4 10 -10z m-2700 -51 c0 -10 -4
-19 -9 -19 -12 0 -23 29 -15 41 8 14 24 0 24 -22z m1030 -59 c0 -5 -4 -10 -10
-10 -5 0 -10 5 -10 10 0 6 5 10 10 10 6 0 10 -4 10 -10z m-7 -55 c1 -5 -6 -11
-15 -13 -11 -2 -18 3 -18 13 0 17 30 18 33 0z m-616 -309 c4 -5 3 -11 -4 -13
-7 -2 -10 -10 -7 -18 4 -10 -8 -15 -43 -20 -26 -4 -59 -10 -73 -15 -14 -5 -51
-14 -82 -21 -50 -10 -58 -15 -58 -34 0 -13 -3 -36 -6 -53 l-6 -30 101 1 c55 0
103 -2 106 -5 4 -3 0 -16 -7 -28 -16 -27 -54 -44 -176 -81 -33 -9 -44 -18 -48
-38 -3 -14 -7 -32 -10 -38 -2 -10 19 -13 86 -13 91 0 108 -8 78 -38 -9 -9 -9
-12 0 -12 23 0 12 -30 -18 -45 -34 -18 -113 -20 -158 -4 -23 8 -31 16 -29 31
1 12 -4 23 -10 25 -9 3 -13 -9 -14 -44 0 -38 -2 -43 -9 -26 -9 23 -7 123 5
185 6 34 5 38 -19 44 -36 9 -35 42 1 46 29 3 35 16 47 106 l7 52 -31 0 c-37 0
-41 27 -5 36 27 7 33 32 13 52 -10 10 27 12 174 10 102 -2 190 -7 195 -12z
m1134 -25 c4 -18 3 -47 -2 -65 -15 -51 -48 -287 -42 -302 3 -8 9 -14 13 -14 5
0 10 -10 12 -22 8 -60 50 -11 90 106 7 21 23 49 35 63 13 13 23 28 23 34 0 5
5 9 11 9 11 0 9 -25 -6 -65 -4 -11 4 -2 19 20 14 22 26 48 26 57 0 28 84 168
100 168 5 0 7 -10 6 -22 -10 -85 -19 -129 -27 -134 -5 -3 -9 -16 -9 -30 0 -13
-15 -57 -33 -97 -19 -40 -40 -87 -47 -104 -15 -40 -117 -113 -157 -113 -15 0
-43 11 -62 23 -20 13 -48 31 -63 41 -27 16 -28 20 -28 92 0 71 16 141 67 284
9 25 21 60 27 78 14 41 38 38 47 -7z m165 -166 c-3 -9 -11 -13 -16 -10 -8 5
-7 11 1 21 14 18 24 11 15 -11z m-342 -351 c23 -9 20 -24 -4 -24 -11 0 -20 7
-20 15 0 17 2 18 24 9z m-2524 -14 c0 -5 -4 -10 -10 -10 -5 0 -10 5 -10 10 0
6 5 10 10 10 6 0 10 -4 10 -10z m3658 -102 c-3 -7 -13 -15 -24 -17 -16 -3 -17
-1 -5 13 16 19 34 21 29 4z m-3684 -99 c-3 -5 -10 -7 -15 -3 -5 3 -7 10 -3 15
3 5 10 7 15 3 5 -3 7 -10 3 -15z m16 -189 c0 -5 -5 -10 -11 -10 -5 0 -7 5 -4
10 3 6 8 10 11 10 2 0 4 -4 4 -10z m2777 -33 c-6 -20 -27 -19 -27 2 0 14 5 19
15 14 9 -3 14 -10 12 -16z m13 -37 c0 -5 -2 -10 -4 -10 -3 0 -8 5 -11 10 -3 6
-1 10 4 10 6 0 11 -4 11 -10z m-2790 -10 c0 -5 -4 -10 -10 -10 -5 0 -10 5 -10
10 0 6 5 10 10 10 6 0 10 -4 10 -10z m3440 -70 c0 -5 -2 -10 -4 -10 -3 0 -8 5
-11 10 -3 6 -1 10 4 10 6 0 11 -4 11 -10z m-670 -220 c0 -5 -7 -10 -15 -10 -8
0 -15 5 -15 10 0 6 7 10 15 10 8 0 15 -4 15 -10z m220 -60 c0 -5 -4 -10 -10
-10 -5 0 -10 5 -10 10 0 6 5 10 10 10 6 0 10 -4 10 -10z m-183 -26 c-9 -9 -28
6 -21 18 4 6 10 6 17 -1 6 -6 8 -13 4 -17z m53 -3 c0 -5 -6 -14 -14 -20 -10
-9 -15 -8 -19 3 -3 8 -1 17 6 20 19 7 27 7 27 -3z m189 -140 c16 -12 36 -18
48 -15 12 3 24 1 27 -5 4 -6 -7 -14 -26 -19 -28 -8 -37 -6 -60 16 -44 41 -36
56 11 23z"/>
<path d="M4025 4420 c-3 -5 -1 -10 4 -10 6 0 11 5 11 10 0 6 -2 10 -4 10 -3 0
-8 -4 -11 -10z"/>
<path d="M5260 4349 c0 -5 5 -7 10 -4 6 3 10 8 10 11 0 2 -4 4 -10 4 -5 0 -10
-5 -10 -11z"/>
<path d="M3825 4240 c-3 -5 -1 -10 4 -10 6 0 11 5 11 10 0 6 -2 10 -4 10 -3 0
-8 -4 -11 -10z"/>
<path d="M3730 4230 c-12 -8 -9 -10 13 -10 15 0 27 5 27 10 0 13 -20 13 -40 0z"/>
<path d="M4843 4025 c-3 -9 -4 -17 -2 -19 8 -7 49 13 49 24 0 16 -40 12 -47
-5z"/>
<path d="M2710 3941 c0 -11 5 -23 10 -26 6 -3 10 3 10 14 0 11 -4 23 -10 26
-5 3 -10 -3 -10 -14z"/>
<path d="M3380 3940 c0 -5 5 -10 10 -10 6 0 10 5 10 10 0 6 -4 10 -10 10 -5 0
-10 -4 -10 -10z"/>
<path d="M4756 3932 c-3 -6 -1 -14 5 -17 14 -9 20 -2 10 14 -6 8 -11 9 -15 3z"/>
<path d="M2702 3890 c6 -19 41 -25 65 -11 15 8 13 9 -12 7 -16 -1 -36 2 -44 8
-11 9 -13 8 -9 -4z"/>
<path d="M3640 3879 c0 -5 5 -7 10 -4 6 3 10 8 10 11 0 2 -4 4 -10 4 -5 0 -10
-5 -10 -11z"/>
<path d="M2786 3861 c-3 -5 1 -11 9 -15 8 -3 15 -1 15 4 0 13 -18 22 -24 11z"/>
<path d="M2780 3820 c0 -5 5 -10 10 -10 6 0 10 5 10 10 0 6 -4 10 -10 10 -5 0
-10 -4 -10 -10z"/>
<path d="M2825 3770 c3 -5 10 -10 16 -10 5 0 9 5 9 10 0 6 -7 10 -16 10 -8 0
-12 -4 -9 -10z"/>
<path d="M3360 3740 c0 -5 5 -10 10 -10 6 0 10 5 10 10 0 6 -4 10 -10 10 -5 0
-10 -4 -10 -10z"/>
<path d="M2990 3620 c0 -5 5 -10 10 -10 6 0 10 5 10 10 0 6 -4 10 -10 10 -5 0
-10 -4 -10 -10z"/>
<path d="M3045 3560 c3 -5 11 -10 16 -10 6 0 7 5 4 10 -3 6 -11 10 -16 10 -6
0 -7 -4 -4 -10z"/>
<path d="M4971 3534 c0 -11 3 -14 6 -6 3 7 2 16 -1 19 -3 4 -6 -2 -5 -13z"/>
<path d="M4266 3491 c-4 -7 -5 -15 -2 -18 9 -9 19 4 14 18 -4 11 -6 11 -12 0z"/>
<path d="M3350 3400 c0 -5 5 -10 10 -10 6 0 10 5 10 10 0 6 -4 10 -10 10 -5 0
-10 -4 -10 -10z"/>
<path d="M3385 3280 c-3 -5 -1 -10 4 -10 6 0 11 5 11 10 0 6 -2 10 -4 10 -3 0
-8 -4 -11 -10z"/>
<path d="M3375 3230 c3 -5 14 -10 23 -10 15 0 15 2 2 10 -20 13 -33 13 -25 0z"/>
<path d="M2968 2963 c7 -3 16 -2 19 1 4 3 -2 6 -13 5 -11 0 -14 -3 -6 -6z"/>
<path d="M3470 2960 c20 -13 33 -13 25 0 -3 6 -14 10 -23 10 -15 0 -15 -2 -2
-10z"/>
<path d="M4967 2924 c-8 -8 1 -24 14 -24 5 0 9 7 9 15 0 15 -12 20 -23 9z"/>
<path d="M2922 2911 c-10 -6 -9 -10 7 -14 14 -3 21 0 21 9 0 16 -9 18 -28 5z"/>
<path d="M3505 2910 c3 -5 8 -10 11 -10 2 0 4 5 4 10 0 6 -5 10 -11 10 -5 0
-7 -4 -4 -10z"/>
<path d="M4948 2883 c7 -3 16 -2 19 1 4 3 -2 6 -13 5 -11 0 -14 -3 -6 -6z"/>
<path d="M4950 2834 c0 -8 5 -12 10 -9 6 3 10 10 10 16 0 5 -4 9 -10 9 -5 0
-10 -7 -10 -16z"/>
<path d="M3600 2826 c0 -9 7 -16 16 -16 9 0 14 5 12 12 -6 18 -28 21 -28 4z"/>
<path d="M4192 2730 c0 -14 2 -19 5 -12 2 6 2 18 0 25 -3 6 -5 1 -5 -13z"/>
<path d="M4130 2701 c0 -6 5 -13 10 -16 6 -3 10 1 10 9 0 9 -4 16 -10 16 -5 0
-10 -4 -10 -9z"/>
<path d="M4172 2680 c13 -20 28 -27 28 -12 0 10 -22 32 -32 32 -5 0 -3 -9 4
-20z"/>
<path d="M4230 2675 c-10 -12 -10 -15 4 -15 9 0 16 7 16 15 0 8 -2 15 -4 15
-2 0 -9 -7 -16 -15z"/>
<path d="M3515 2640 c-2 -4 7 -12 20 -18 14 -7 25 -16 25 -22 0 -5 4 -10 9
-10 4 0 8 13 7 28 -1 24 -5 29 -29 29 -15 0 -30 -3 -32 -7z"/>
<path d="M3510 2600 c0 -5 5 -10 11 -10 5 0 7 5 4 10 -3 6 -8 10 -11 10 -2 0
-4 -4 -4 -10z"/>
<path d="M3768 2603 c-10 -2 -18 -9 -18 -15 0 -5 7 -7 16 -4 9 3 22 6 30 6 8
0 14 5 14 10 0 10 -12 11 -42 3z"/>
<path d="M3825 2580 c-3 -5 -2 -10 4 -10 5 0 18 -3 28 -7 17 -6 17 -6 1 10
-19 20 -24 21 -33 7z"/>
<path d="M4761 2538 c-11 -30 -4 -36 14 -12 17 23 19 34 5 34 -6 0 -14 -10
-19 -22z"/>
<path d="M2390 2500 c0 -11 5 -20 10 -20 6 0 10 9 10 20 0 11 -4 20 -10 20 -5
0 -10 -9 -10 -20z"/>
<path d="M4694 2500 c-22 -9 -42 -30 -27 -30 4 1 24 9 43 20 35 19 24 26 -16
10z"/>
<path d="M3620 2490 c0 -5 5 -10 11 -10 5 0 7 5 4 10 -3 6 -8 10 -11 10 -2 0
-4 -4 -4 -10z"/>
<path d="M4600 2460 c-24 -8 -23 -8 8 -9 17 -1 32 4 32 9 0 11 -5 11 -40 0z"/>
<path d="M4618 2433 c-10 -2 -18 -9 -18 -15 0 -5 7 -7 16 -4 9 3 22 6 30 6 8
0 14 5 14 10 0 10 -12 11 -42 3z"/>
<path d="M3952 2221 c2 -7 7 -12 11 -12 12 1 9 15 -3 20 -7 2 -11 -2 -8 -8z"/>
<path d="M2138 3913 c7 -3 16 -2 19 1 4 3 -2 6 -13 5 -11 0 -14 -3 -6 -6z"/>
<path d="M2096 3883 c-8 -21 10 -41 24 -27 11 11 3 44 -10 44 -4 0 -11 -8 -14
-17z"/>
<path d="M2083 3787 c4 -25 2 -37 -6 -37 -10 0 -37 -43 -37 -60 0 -3 18 -6 41
-7 40 -2 41 -2 20 16 -18 16 -19 21 -9 49 7 18 18 32 25 32 7 0 13 7 13 15 0
8 -4 15 -9 15 -5 0 -17 3 -27 7 -15 5 -16 2 -11 -30z"/>
<path d="M2158 3813 c7 -3 16 -2 19 1 4 3 -2 6 -13 5 -11 0 -14 -3 -6 -6z"/>
<path d="M2050 3779 c0 -5 5 -7 10 -4 6 3 10 8 10 11 0 2 -4 4 -10 4 -5 0 -10
-5 -10 -11z"/>
<path d="M1440 3735 c0 -16 6 -25 16 -25 11 0 14 5 10 16 -3 9 -6 20 -6 25 0
5 -4 9 -10 9 -5 0 -10 -11 -10 -25z"/>
<path d="M2010 3720 c0 -5 5 -10 10 -10 6 0 10 5 10 10 0 6 -4 10 -10 10 -5 0
-10 -4 -10 -10z"/>
<path d="M2140 3670 c0 -5 4 -10 9 -10 6 0 13 5 16 10 3 6 -1 10 -9 10 -9 0
-16 -4 -16 -10z"/>
<path d="M2040 3640 c0 -5 7 -10 15 -10 8 0 15 5 15 10 0 6 -7 10 -15 10 -8 0
-15 -4 -15 -10z"/>
<path d="M2147 3632 c-21 -23 -22 -33 -3 -26 8 3 16 14 19 25 6 24 4 24 -16 1z"/>
<path d="M2187 3643 c-4 -3 -7 -11 -7 -17 0 -6 5 -5 12 2 6 6 9 14 7 17 -3 3
-9 2 -12 -2z"/>
<path d="M2125 3581 c-3 -5 -1 -12 5 -16 5 -3 10 1 10 9 0 18 -6 21 -15 7z"/>
<path d="M1270 3560 c0 -5 5 -10 10 -10 6 0 10 5 10 10 0 6 -4 10 -10 10 -5 0
-10 -4 -10 -10z"/>
<path d="M2040 3540 c0 -5 5 -10 10 -10 6 0 10 5 10 10 0 6 -4 10 -10 10 -5 0
-10 -4 -10 -10z"/>
<path d="M1928 3495 c2 -14 6 -25 8 -25 2 0 4 11 4 25 0 14 -4 25 -9 25 -4 0
-6 -11 -3 -25z"/>
<path d="M1240 3470 c0 -5 5 -10 10 -10 6 0 10 5 10 10 0 6 -4 10 -10 10 -5 0
-10 -4 -10 -10z"/>
<path d="M1260 3431 c-13 -26 2 -34 26 -16 16 13 17 14 2 9 -20 -7 -25 12 -5
19 9 4 9 6 0 6 -7 1 -17 -8 -23 -18z"/>
<path d="M1915 3440 c-16 -7 -17 -9 -3 -9 9 -1 20 4 23 9 7 11 7 11 -20 0z"/>
<path d="M1210 3340 c0 -5 7 -10 15 -10 8 0 15 5 15 10 0 6 -7 10 -15 10 -8 0
-15 -4 -15 -10z"/>
<path d="M1165 3210 c3 -5 8 -10 11 -10 2 0 4 5 4 10 0 6 -5 10 -11 10 -5 0
-7 -4 -4 -10z"/>
<path d="M1275 3170 c3 -5 8 -10 11 -10 2 0 4 5 4 10 0 6 -5 10 -11 10 -5 0
-7 -4 -4 -10z"/>
<path d="M1250 3156 c0 -2 7 -7 16 -10 8 -3 12 -2 9 4 -6 10 -25 14 -25 6z"/>
<path d="M1888 3123 c7 -3 16 -2 19 1 4 3 -2 6 -13 5 -11 0 -14 -3 -6 -6z"/>
<path d="M1110 3049 c0 -5 5 -7 10 -4 6 3 10 8 10 11 0 2 -4 4 -10 4 -5 0 -10
-5 -10 -11z"/>
<path d="M1215 3020 c-8 -13 4 -32 16 -25 12 8 12 35 0 35 -6 0 -13 -4 -16
-10z"/>
<path d="M1130 3004 c0 -8 5 -12 10 -9 6 4 8 11 5 16 -9 14 -15 11 -15 -7z"/>
<path d="M1720 2986 c0 -18 7 -53 15 -77 9 -24 13 -54 10 -66 -3 -12 0 -23 6
-25 9 -3 9 -9 1 -24 -8 -15 -8 -24 0 -32 6 -6 11 -25 10 -42 0 -20 4 -30 14
-30 13 0 14 10 9 55 -4 31 -8 69 -10 86 -1 16 -7 35 -14 42 -14 14 -15 37 -1
37 6 0 4 13 -5 30 -8 16 -15 40 -15 55 0 14 -4 25 -10 25 -5 0 -10 -15 -10
-34z"/>
<path d="M1942 2618 c3 -7 13 -15 24 -17 16 -3 17 -1 5 13 -16 19 -34 21 -29
4z"/>
<path d="M1148 2595 c-10 -13 -18 -27 -18 -30 0 -12 49 30 50 43 0 19 -13 14
-32 -13z"/>
<path d="M1187 2534 c-10 -11 -9 -44 2 -44 15 0 19 13 12 33 -4 10 -10 15 -14
11z"/>
<path d="M2300 3090 c0 -5 6 -10 14 -10 8 0 18 5 21 10 3 6 -3 10 -14 10 -12
0 -21 -4 -21 -10z"/>
</g>
</svg>
