<?xml version="1.0" standalone="no"?>
<!DOCTYPE svg PUBLIC "-//W3C//DTD SVG 20010904//EN"
 "http://www.w3.org/TR/2001/REC-SVG-20010904/DTD/svg10.dtd">
<svg version="1.0" xmlns="http://www.w3.org/2000/svg"
 width="1280.000000pt" height="427.000000pt" viewBox="0 0 1280.000000 427.000000"
 preserveAspectRatio="xMidYMid meet">

<g transform="translate(0.000000,427.000000) scale(0.100000,-0.100000)"
fill="#000000" stroke="none">
<path d="M0 2135 l0 -2135 6400 0 6400 0 0 2135 0 2135 -6400 0 -6400 0 0
-2135z m9578 1703 c7 -7 12 -22 12 -34 0 -17 5 -20 25 -16 30 5 34 -14 5 -22
-11 -3 -29 -9 -41 -12 -17 -5 -20 -2 -17 16 3 19 -2 23 -34 27 -29 3 -40 -1
-52 -19 -9 -12 -16 -35 -16 -50 0 -18 -8 -33 -25 -44 -14 -9 -24 -24 -23 -33
2 -11 -6 -17 -25 -19 -16 -2 -34 -14 -43 -28 -9 -13 -25 -24 -35 -24 -10 0
-23 -9 -29 -20 -6 -11 -20 -20 -31 -20 -29 0 -75 -26 -84 -47 -6 -16 -7 -17
-18 -2 -9 12 -18 14 -36 8 -19 -8 -21 -12 -11 -24 7 -8 19 -15 26 -15 8 0 14
-4 14 -10 0 -5 -12 -10 -26 -10 -14 0 -34 -5 -45 -11 -15 -8 -24 -7 -35 2 -12
10 -18 9 -32 -4 -15 -16 -14 -17 11 -17 15 0 27 -4 27 -9 0 -15 -31 -22 -65
-15 -29 5 -33 3 -37 -20 -3 -14 0 -30 5 -35 6 -6 7 -14 3 -18 -4 -5 -14 0 -21
10 -18 25 -55 6 -55 -28 0 -20 -5 -25 -24 -25 -18 0 -26 -6 -28 -22 -3 -19
-10 -22 -60 -26 -49 -3 -58 -1 -58 13 0 13 6 16 24 11 14 -3 27 -2 30 3 6 9
-26 21 -60 21 -12 0 -24 -8 -27 -17 -4 -10 -14 -29 -24 -43 -18 -23 -18 -24 2
-16 47 19 57 19 53 1 -5 -30 -104 -74 -168 -75 -42 0 -51 -3 -42 -12 7 -7 23
-12 37 -13 43 0 32 -20 -12 -23 -38 -3 -43 -1 -43 17 0 22 -14 28 -25 12 -3
-5 11 -22 30 -38 l35 -29 -42 -28 c-23 -15 -50 -25 -59 -23 -16 4 -17 3 -4
-17 17 -25 11 -38 -12 -29 -12 5 -14 1 -8 -15 4 -14 2 -22 -5 -22 -6 0 -23 -8
-37 -17 -14 -10 -38 -16 -53 -15 -19 2 -30 -3 -39 -22 -16 -30 -8 -46 25 -46
14 0 36 -7 49 -16 14 -9 32 -14 40 -10 8 3 25 1 38 -3 47 -19 185 -60 242 -72
33 -7 98 -25 145 -39 47 -15 111 -33 142 -39 62 -13 83 -30 73 -60 -9 -29 -28
-32 -87 -15 -72 22 -148 29 -148 15 0 -12 41 -31 78 -36 24 -2 42 -21 67 -67
9 -16 21 -28 27 -28 16 0 88 -71 88 -86 0 -7 8 -19 18 -26 36 -25 49 -67 54
-168 0 -8 5 -21 11 -27 6 -9 4 -21 -8 -39 -16 -25 -16 -28 4 -55 17 -23 19
-29 6 -29 -18 0 -19 -5 -4 -31 7 -15 7 -24 -1 -35 -7 -7 -10 -20 -7 -28 3 -8
0 -19 -7 -25 -7 -6 -13 -30 -13 -53 0 -32 -6 -46 -24 -61 -16 -13 -23 -27 -21
-44 2 -13 -3 -30 -11 -36 -8 -7 -23 -36 -33 -66 -10 -29 -25 -56 -31 -58 -7
-3 -13 -11 -13 -18 0 -21 -17 -27 -38 -14 -16 10 -23 8 -41 -10 -22 -22 -22
-24 -5 -42 16 -18 16 -20 1 -37 -9 -10 -22 -33 -28 -51 -10 -29 -15 -32 -40
-29 -18 3 -29 0 -29 -7 0 -12 -68 -63 -102 -77 -10 -4 -18 -12 -18 -18 0 -6
-17 -18 -37 -27 -21 -8 -46 -22 -56 -31 -9 -8 -34 -18 -55 -22 -31 -5 -37 -10
-35 -28 3 -22 -22 -32 -29 -12 -2 5 -19 7 -38 4 -26 -4 -42 -15 -59 -41 -17
-26 -26 -32 -34 -24 -15 15 -20 14 -48 -10 l-24 -20 -7 30 c-9 33 -23 47 -33
31 -11 -17 -28 -11 -22 9 5 20 -8 23 -196 37 -68 5 -87 10 -83 20 6 17 1 17
-25 4 -15 -8 -33 -5 -82 15 -61 26 -88 31 -218 39 -37 2 -76 9 -87 15 -15 8
-21 8 -24 -1 -3 -8 -19 -4 -52 12 -29 13 -71 24 -103 25 l-54 3 20 -22 c23
-24 19 -36 -11 -36 -13 0 -18 8 -18 28 0 22 -7 32 -35 45 -42 20 -45 10 -17
-50 22 -49 52 -83 71 -83 9 0 22 -4 30 -9 13 -8 13 -12 1 -26 -12 -15 -12 -19
4 -30 11 -9 16 -23 14 -39 -2 -20 7 -36 35 -64 75 -72 127 -142 127 -168 0
-17 7 -28 20 -31 20 -5 29 -43 10 -43 -5 0 -10 -13 -10 -29 0 -25 5 -30 34
-35 18 -4 40 -4 48 -1 10 4 21 -10 37 -46 l24 -51 -34 -29 c-34 -29 -59 -37
-59 -19 0 5 9 14 21 20 30 16 18 22 -48 24 l-58 1 2 31 c2 25 -1 31 -14 30
-19 -1 -61 65 -62 99 -2 23 -116 95 -150 95 -28 0 -27 23 2 44 22 17 21 17
-19 12 -34 -5 -45 -2 -60 16 -14 15 -16 22 -6 25 6 3 12 13 12 24 0 19 11 25
23 12 4 -3 2 -12 -5 -20 -12 -15 -2 -32 11 -17 5 5 11 23 14 39 5 30 4 31 -26
27 -23 -3 -38 2 -51 17 -17 19 -17 21 -3 21 10 0 17 4 17 9 0 10 -35 21 -69
21 -12 0 -38 15 -56 32 -50 49 -74 62 -91 47 -20 -16 -28 -5 -14 20 12 24 6
41 -15 41 -25 0 -46 31 -43 64 3 30 2 31 -41 34 -37 3 -42 6 -38 23 8 30 -10
81 -42 119 -29 34 -30 35 -44 15 -19 -25 -36 -11 -19 15 10 16 7 22 -26 42
-20 12 -48 35 -60 50 -13 16 -32 28 -42 28 -10 0 -23 13 -30 30 -10 24 -15 28
-26 19 -11 -9 -14 -6 -14 15 0 14 -4 26 -10 26 -5 0 -10 -7 -10 -15 0 -8 -4
-15 -9 -15 -20 0 -21 20 -1 52 11 18 20 40 20 48 0 21 -61 55 -71 39 -12 -20
-31 1 -24 28 5 20 3 24 -9 20 -9 -4 -16 -2 -16 3 0 6 -7 10 -15 10 -10 0 -15
11 -15 35 0 30 -3 35 -24 35 -14 0 -28 -4 -31 -10 -3 -5 -1 -10 4 -10 6 0 11
-7 11 -15 0 -8 -7 -15 -15 -15 -8 0 -15 5 -15 10 0 14 -28 12 -33 -2 -2 -7 3
-18 11 -24 11 -8 8 -16 -20 -45 -49 -53 -78 -90 -78 -100 0 -5 -26 -37 -57
-70 -32 -33 -68 -76 -80 -96 -12 -20 -50 -64 -84 -99 -58 -59 -64 -62 -83 -48
-29 20 -45 18 -68 -11 -11 -14 -25 -25 -33 -25 -8 0 -11 -7 -8 -20 3 -11 0
-20 -6 -20 -6 0 -11 -11 -11 -24 0 -18 -6 -25 -22 -28 -15 -2 -25 -12 -28 -28
-3 -14 -23 -52 -45 -84 -22 -33 -45 -69 -52 -80 -20 -34 -44 -46 -94 -46 -46
0 -86 22 -57 33 10 3 9 9 -5 24 -16 18 -16 22 -2 33 15 13 21 40 8 40 -18 -1
-65 -48 -54 -54 6 -4 11 -23 11 -42 0 -27 -4 -34 -19 -34 -23 0 -31 17 -24 53
4 20 1 27 -10 27 -9 0 -17 -10 -19 -22 -4 -29 -38 -36 -51 -12 -13 22 -11 29
5 29 6 0 13 6 16 13 2 6 -3 12 -12 12 -19 0 -21 11 -3 29 10 10 8 12 -7 9 -10
-1 -21 3 -23 10 -7 20 64 15 76 -5 15 -28 23 -8 12 31 -8 33 -7 39 15 61 35
35 32 65 -6 65 -30 0 -43 24 -19 32 9 3 8 10 -1 25 -12 19 -9 27 39 82 55 63
78 77 111 66 25 -8 45 7 76 57 14 22 32 38 43 38 10 0 24 7 32 16 11 13 9 14
-17 8 -26 -7 -28 -6 -15 9 7 10 22 17 32 17 15 0 19 7 19 35 0 35 16 47 26 20
5 -13 34 -22 34 -11 0 2 3 11 6 19 4 11 -2 16 -17 19 -33 5 -34 25 -2 32 15 4
36 9 46 12 13 4 17 1 15 -12 -4 -23 18 -29 26 -7 3 10 9 24 12 31 4 9 0 12
-11 10 -32 -6 -26 19 11 47 32 25 41 27 65 18 41 -16 39 10 -1 27 -39 16 -38
33 4 53 19 9 40 25 46 37 11 21 8 23 -27 21 -41 -4 -35 19 11 40 48 21 62 34
47 43 -15 10 11 66 31 66 24 0 23 13 -2 35 -27 24 -25 43 5 51 26 6 34 29 13
36 -10 4 -10 10 -1 31 7 14 8 29 4 32 -5 2 -11 -5 -14 -16 -8 -31 -24 -15 -19
20 3 21 -2 36 -18 53 -12 13 -36 42 -53 66 -25 35 -35 42 -54 37 -18 -4 -25 0
-33 19 -7 18 -14 23 -29 19 -15 -4 -21 -1 -21 11 0 10 9 16 25 16 14 0 25 5
25 10 0 6 -20 10 -44 10 -46 0 -70 15 -42 26 26 10 18 27 -9 20 -18 -5 -25 -2
-25 9 0 8 5 15 10 15 6 0 10 5 10 10 0 6 -6 10 -14 10 -7 0 -19 6 -25 14 -10
11 -8 16 8 21 31 9 25 25 -8 25 -34 0 -48 15 -32 34 7 9 5 17 -9 29 -11 9 -24
17 -29 17 -4 0 -16 10 -27 21 -10 12 -34 28 -52 36 -29 12 -33 18 -28 39 5 19
3 24 -12 24 -27 0 -53 32 -42 50 12 19 13 80 2 80 -5 0 -14 12 -21 27 -11 24
-10 30 6 43 15 12 17 20 9 42 -7 19 -6 31 4 42 21 27 39 18 65 -33 28 -56 39
-66 60 -54 13 7 10 14 -15 43 -37 44 -37 52 -1 73 29 17 29 17 56 -15 15 -18
24 -39 22 -49 -7 -25 52 -120 83 -136 14 -7 24 -20 22 -29 -3 -17 24 -43 46
-44 6 0 12 5 12 10 0 6 -7 10 -15 10 -9 0 -12 6 -8 15 3 9 -2 21 -12 29 -16
12 -16 15 -1 44 20 40 47 47 91 26 29 -13 35 -22 35 -46 0 -30 1 -30 23 -14
38 28 48 29 63 7 8 -11 22 -21 30 -21 8 0 14 -7 14 -16 0 -11 -6 -14 -20 -9
-31 10 -24 -11 19 -57 36 -39 41 -41 65 -30 32 14 61 3 71 -29 9 -27 1 -33
-23 -20 -28 15 -62 14 -62 -2 0 -16 44 -59 56 -55 5 1 24 -3 42 -11 25 -10 36
-11 45 -2 16 16 37 14 37 -4 0 -8 -7 -15 -15 -15 -12 0 -12 -5 -4 -23 8 -18
17 -23 34 -20 28 6 44 -16 21 -29 -22 -13 -20 -38 4 -38 15 0 20 -7 20 -25 0
-14 2 -25 4 -25 2 0 11 -3 19 -6 11 -4 13 1 10 19 -6 30 16 47 29 23 8 -15 11
-14 28 6 10 12 15 28 13 35 -3 8 4 13 20 13 17 0 24 5 23 18 -1 12 5 16 21 15
15 -2 21 2 17 11 -3 9 11 21 40 36 49 23 49 23 40 58 -4 14 -12 21 -20 18 -9
-4 -14 2 -14 15 0 15 5 20 23 17 12 -2 22 -9 22 -17 0 -24 23 -24 27 1 2 16
13 25 37 32 l34 10 -34 11 c-28 10 -36 19 -44 50 -8 31 -7 39 5 43 8 3 29 20
47 39 17 18 36 33 42 33 5 0 22 11 38 24 21 18 38 23 69 21 23 -1 46 -5 52 -9
14 -8 25 28 17 54 -5 16 -2 20 17 20 39 0 98 12 98 20 0 4 -11 15 -25 24 -28
18 -34 42 -9 32 21 -8 94 4 94 16 0 5 -7 16 -15 24 -22 23 -18 41 12 56 16 8
31 25 36 43 7 23 21 36 60 55 42 20 58 36 86 83 32 54 36 57 74 57 35 0 38 2
24 13 -16 11 -16 14 -2 33 13 19 45 31 97 37 13 1 16 7 12 23 -5 19 0 24 28
32 18 5 41 13 51 17 12 5 17 2 17 -8 0 -13 10 -15 56 -10 42 5 58 2 65 -8 15
-24 10 -51 -11 -56 -11 -3 -20 -14 -20 -24 0 -15 -8 -19 -37 -20 -21 0 -56 -3
-78 -8 -39 -7 -40 -7 -16 -20 15 -8 38 -11 62 -7 31 5 39 3 39 -9 0 -10 -9
-15 -26 -15 -23 0 -25 -3 -20 -26 6 -23 4 -26 -13 -21 -23 6 -38 -8 -21 -18
15 -9 2 -25 -21 -25 -14 0 -19 -7 -19 -26 0 -14 -7 -32 -16 -41 -11 -11 -12
-19 -5 -26 6 -6 11 -20 11 -30 0 -15 -5 -18 -26 -14 -22 4 -28 0 -41 -32 -17
-39 -31 -53 -50 -47 -7 3 -14 -16 -18 -55 -7 -59 -7 -59 -40 -59 -39 0 -57
-19 -26 -27 27 -7 27 -23 1 -23 -13 0 -20 -7 -20 -20 0 -24 -34 -43 -66 -37
-24 4 -34 -15 -14 -28 19 -12 10 -25 -29 -45 -26 -13 -41 -28 -43 -42 -2 -14
-15 -29 -35 -38 -29 -14 -32 -18 -27 -48 5 -27 2 -38 -21 -62 -16 -17 -25 -35
-22 -44 7 -19 -16 -38 -36 -30 -10 3 -20 -2 -26 -15 -6 -11 -20 -23 -31 -26
-13 -4 -20 -15 -20 -31 0 -25 -16 -45 -75 -94 -70 -59 -110 -129 -66 -115 11
3 22 1 25 -4 9 -14 -32 -34 -55 -28 -10 3 -19 2 -19 -3 0 -4 10 -10 21 -13 18
-5 21 -11 16 -34 -3 -15 -8 -35 -12 -44 -3 -9 8 -36 29 -66 23 -34 33 -58 29
-72 -3 -12 0 -28 7 -36 6 -8 9 -23 6 -33 -4 -11 2 -29 14 -45 17 -21 27 -25
50 -20 34 6 43 -15 10 -24 -24 -6 -23 -5 -8 -38 9 -21 18 -25 55 -25 31 0 43
-4 40 -12 -2 -7 -11 -12 -21 -10 -9 2 -16 -4 -16 -14 0 -12 6 -15 24 -10 34 8
43 -12 12 -24 -33 -12 -33 -26 -1 -34 29 -7 67 -57 47 -64 -6 -2 -12 -19 -12
-37 0 -25 5 -34 21 -38 12 -3 19 -11 16 -19 -2 -7 3 -21 11 -31 14 -16 17 -16
33 -1 23 21 39 10 39 -26 0 -33 -28 -47 -59 -31 -32 18 -43 14 -31 -9 9 -16
18 -20 43 -15 41 6 102 -23 103 -50 1 -22 23 -85 31 -85 2 0 14 5 25 11 22 12
22 14 2 -36 -3 -8 -1 -15 5 -15 7 0 21 -16 32 -35 13 -22 31 -37 48 -41 14 -3
34 -9 43 -14 11 -6 24 -3 41 10 13 11 27 17 29 14 3 -3 20 8 38 25 41 37 86
45 112 19 19 -19 48 -24 48 -8 0 6 5 10 10 10 6 0 10 -9 10 -20 0 -24 3 -25
38 -3 15 9 28 18 30 18 1 1 -4 18 -13 38 -10 25 -20 34 -32 31 -10 -2 -31 8
-47 22 -27 24 -33 38 -35 84 -1 12 -4 12 -17 -2 -13 -13 -22 -14 -40 -6 -30
14 -34 58 -5 58 10 0 21 9 24 20 3 14 10 18 21 14 11 -4 15 -13 10 -27 -5 -16
-3 -19 11 -14 9 4 26 0 38 -8 14 -10 33 -13 59 -9 33 6 41 3 67 -25 33 -35 51
-40 51 -13 0 10 3 22 7 26 4 4 8 15 8 24 0 10 8 17 20 17 11 0 19 -5 18 -11
-1 -7 13 -15 33 -18 19 -4 40 -15 46 -25 9 -15 20 -18 50 -14 36 5 38 4 38
-21 0 -22 4 -26 29 -26 17 0 33 -4 36 -10 3 -5 19 -10 36 -10 16 0 29 -5 29
-12 0 -9 3 -9 12 0 16 16 45 15 52 0 3 -9 8 -8 16 5 13 20 55 23 67 4 13 -20
109 3 105 25 -5 26 38 59 75 56 18 -1 34 0 36 2 31 39 51 78 49 97 -2 28 9 29
32 4 11 -12 25 -17 38 -13 l22 5 -22 8 c-25 10 -28 37 -7 65 8 10 15 27 15 37
0 20 26 23 33 5 3 -7 6 -1 6 15 1 20 6 27 22 27 16 0 19 4 14 20 -10 31 4 60
38 81 22 13 26 19 15 19 -14 0 -17 7 -14 34 4 25 1 36 -11 40 -12 5 -14 15
-10 41 7 42 -15 86 -70 141 -33 33 -40 46 -36 67 5 25 4 27 -26 21 -20 -4 -31
-3 -31 5 0 6 5 11 10 11 6 0 10 5 10 10 0 6 -10 10 -22 9 -52 -5 -60 0 -54 26
4 14 4 25 2 25 -2 0 -11 3 -20 6 -11 4 -16 1 -16 -11 0 -12 -5 -15 -17 -10
-10 4 -28 10 -40 12 -13 3 -23 12 -23 19 0 10 -7 13 -23 9 -15 -4 -28 -1 -37
9 -9 12 -16 13 -26 5 -9 -7 -21 -6 -42 5 -30 15 -107 15 -224 0 -41 -5 -47 -3
-53 15 -7 23 -20 27 -30 11 -3 -5 -24 -10 -46 -10 -21 0 -39 -4 -39 -8 0 -13
-93 -8 -98 6 -2 6 1 12 7 12 23 0 10 19 -16 22 -14 2 -28 9 -31 16 -3 9 3 11
20 7 13 -3 31 0 43 9 20 15 19 15 -5 16 -50 1 -72 12 -67 32 4 14 1 18 -9 14
-19 -7 -18 13 4 49 11 17 22 47 26 68 4 22 13 37 21 37 11 0 15 12 15 44 0 36
5 48 27 65 14 12 23 24 20 27 -11 11 14 46 28 40 8 -3 25 11 41 31 33 44 77
87 124 121 19 15 56 45 81 68 31 28 60 45 85 50 24 4 53 19 74 40 19 18 60 46
91 61 32 16 54 33 51 41 -2 7 5 12 17 12 12 0 21 4 21 10 0 15 55 39 76 34 11
-3 47 8 80 25 33 16 66 29 74 28 22 -2 104 39 125 63 10 11 24 20 31 20 6 0
26 16 43 36 19 21 38 34 49 31 9 -2 32 5 50 16 24 14 43 18 69 14 52 -9 93 2
103 28 10 26 77 69 86 54 3 -6 23 0 49 15 42 25 86 29 128 11 10 -4 17 -3 17
3 0 6 -14 15 -31 21 -38 13 -29 31 17 31 20 0 47 9 64 21 16 12 35 19 43 16 8
-3 34 1 58 8 56 17 72 18 87 3z m100 -16 c3 -10 -6 -12 -34 -10 -20 2 -39 9
-42 16 -3 10 6 12 34 10 20 -2 39 -9 42 -16z m-5554 -50 c3 -5 1 -24 -3 -43
-30 -117 -14 -167 59 -176 38 -5 40 -8 40 -39 0 -25 -4 -34 -17 -35 -11 0 -13
-3 -6 -6 9 -3 11 -20 7 -57 -5 -41 -2 -59 11 -79 10 -16 15 -36 11 -50 -3 -13
1 -32 9 -44 8 -12 14 -30 13 -40 -3 -36 2 -53 17 -53 18 0 19 -12 3 -28 -13
-13 10 -68 47 -110 20 -23 20 -24 1 -37 -18 -14 -18 -15 8 -25 15 -5 31 -10
35 -10 13 0 21 -44 11 -54 -15 -15 -12 -26 5 -26 11 0 14 -7 9 -24 -5 -20 -2
-25 18 -28 12 -2 23 -10 23 -18 0 -8 6 -25 13 -37 10 -19 10 -23 -5 -32 -16
-9 -16 -10 -1 -11 18 0 48 -26 48 -41 0 -5 -14 -9 -30 -9 -28 0 -29 -2 -18
-20 7 -11 22 -20 34 -20 17 0 23 -8 29 -37 4 -20 14 -42 22 -48 30 -22 82
-227 64 -249 -6 -7 -4 -19 5 -30 22 -30 18 -65 -8 -75 -22 -8 -21 -9 14 -24
25 -11 36 -21 32 -30 -3 -8 2 -17 10 -20 9 -4 16 -13 16 -22 0 -23 17 -18 36
10 9 14 13 32 9 45 -4 13 -2 20 7 20 17 0 22 113 7 141 -7 15 -5 24 11 41 25
27 21 43 -10 43 -27 0 -37 24 -39 91 -1 28 6 50 20 68 11 15 19 33 16 40 -3 7
17 34 44 60 32 30 46 51 42 62 -3 8 -12 13 -19 10 -7 -3 -16 -1 -18 3 -9 13
28 41 57 43 31 3 34 10 11 29 -17 14 -44 62 -44 79 0 5 7 10 15 10 8 0 15 7
15 15 0 8 -7 15 -15 15 -22 0 -18 13 10 40 30 28 31 36 5 43 -26 7 -26 33 0
47 11 6 43 14 70 17 28 3 51 12 54 20 8 20 -25 29 -36 10 -10 -19 -38 -12 -38
9 0 8 7 17 15 20 8 4 15 12 15 19 0 7 -7 15 -15 19 -8 3 -15 13 -15 22 0 13 6
15 28 10 19 -5 23 -4 12 3 -12 9 -12 14 3 45 16 35 16 36 -3 36 -11 0 -20 6
-20 14 0 20 28 46 49 46 20 0 47 -43 37 -59 -4 -6 4 -13 19 -17 14 -3 25 -12
25 -20 0 -17 1 -17 36 1 38 19 93 20 100 0 4 -8 13 -15 21 -15 25 0 8 -25 -18
-26 -31 -2 -59 -14 -59 -25 0 -5 9 -4 20 3 29 19 50 -4 27 -30 -9 -10 -17 -27
-16 -38 0 -16 2 -15 10 5 8 19 12 21 24 11 20 -16 20 -60 0 -60 -8 0 -15 5
-15 11 0 8 -4 8 -14 0 -19 -16 -9 -50 26 -84 31 -31 37 -57 13 -57 -8 0 -15 7
-15 15 0 9 -6 12 -15 9 -9 -4 -15 0 -15 10 0 17 -15 22 -24 7 -3 -5 1 -12 10
-15 19 -7 14 -41 -6 -41 -8 0 -16 -8 -18 -17 -3 -15 4 -18 32 -18 29 0 36 -4
36 -20 0 -11 4 -20 9 -20 14 0 10 -81 -5 -87 -9 -3 -12 -14 -8 -29 5 -20 2
-24 -15 -24 -21 0 -41 -26 -41 -54 0 -9 6 -13 13 -10 10 3 13 -8 12 -47 -1
-47 -5 -55 -38 -84 -44 -38 -46 -48 -11 -39 22 6 25 4 21 -12 -17 -57 -18 -71
-3 -84 15 -11 15 -14 -1 -26 -16 -12 -16 -15 -3 -24 13 -9 13 -11 0 -19 -54
-34 -64 -60 -45 -121 8 -22 7 -23 -7 -12 -10 8 -19 9 -22 4 -3 -6 1 -15 9 -22
8 -7 15 -19 15 -28 0 -8 8 -21 18 -28 14 -11 15 -15 3 -23 -7 -5 -10 -14 -6
-21 4 -7 2 -16 -6 -20 -10 -7 -9 -17 6 -50 15 -33 16 -43 6 -50 -8 -4 -11 -13
-7 -18 4 -6 -3 -16 -14 -22 -17 -9 -19 -14 -10 -25 13 -16 3 -40 -29 -69 -26
-24 -27 -43 -1 -51 27 -8 25 -27 -5 -63 -21 -26 -24 -34 -15 -57 7 -19 7 -31
0 -40 -6 -7 -8 -20 -4 -29 4 -11 1 -16 -10 -16 -9 0 -16 5 -16 12 0 6 -9 3
-20 -7 -24 -22 -25 -32 -4 -74 12 -24 13 -35 4 -45 -6 -8 -8 -25 -5 -38 3 -13
1 -36 -4 -52 -9 -21 -15 -26 -31 -21 -24 8 -26 -1 -5 -21 8 -9 15 -26 15 -39
0 -18 -7 -25 -30 -30 -32 -7 -37 -14 -19 -32 8 -8 7 -19 -4 -39 -18 -35 -82
-104 -96 -104 -17 0 -22 17 -11 44 13 36 -5 43 -34 12 -23 -25 -46 -34 -46
-18 0 4 5 13 12 20 8 8 9 12 1 12 -6 0 -18 3 -27 6 -12 5 -16 0 -16 -20 0 -16
-6 -26 -15 -26 -17 0 -21 55 -5 65 16 10 12 23 -7 21 -16 -1 -18 7 -15 58 1
35 8 67 17 76 20 22 19 37 -2 50 -13 8 -14 13 -5 16 19 9 14 24 -7 24 -11 0
-27 10 -35 22 l-16 22 0 -26 c0 -33 -8 -38 -37 -27 -32 12 -30 52 3 78 19 15
31 18 39 11 6 -5 15 -7 18 -3 11 10 8 61 -3 68 -5 3 -8 25 -6 47 2 23 -1 53
-7 66 -8 17 -8 25 0 30 8 5 4 14 -12 28 l-23 21 -6 -36 c-3 -19 0 -41 6 -48 8
-10 8 -20 -1 -39 -9 -20 -8 -30 4 -47 17 -24 19 -45 5 -67 -7 -12 -12 -11 -30
5 -12 11 -19 27 -17 37 4 13 -1 18 -14 18 -15 0 -18 7 -16 38 1 20 -2 42 -6
49 -4 6 -3 14 3 18 15 9 12 25 -5 25 -18 0 -20 16 -2 23 7 3 5 6 -5 6 -20 1
-24 21 -7 38 14 14 -5 53 -26 53 -8 0 -15 2 -15 4 0 2 -3 11 -6 20 -4 11 -1
16 11 16 14 0 12 6 -10 32 -22 25 -25 38 -20 65 5 29 3 34 -19 42 -13 6 -27
15 -31 21 -10 16 14 40 41 40 30 0 31 16 3 25 -14 5 -19 13 -16 26 3 10 1 19
-5 19 -6 0 -8 10 -5 21 3 12 0 30 -6 40 -10 16 -9 21 2 28 11 7 11 12 0 32 -7
13 -12 28 -11 32 1 4 -4 20 -12 36 -13 25 -13 31 1 50 14 21 14 24 -6 37 -22
16 -28 48 -11 59 6 4 0 24 -16 51 -15 25 -23 51 -20 60 4 9 1 22 -4 30 -6 7
-14 38 -17 68 -3 31 -9 56 -13 56 -4 0 -10 13 -13 28 -3 16 -17 34 -32 42 -26
14 -29 13 -51 -13 -13 -16 -24 -37 -24 -48 0 -10 -4 -19 -10 -19 -5 0 -7 -13
-4 -30 4 -18 1 -36 -6 -45 -7 -8 -10 -22 -6 -30 3 -8 1 -26 -4 -39 -6 -16 -5
-35 2 -53 9 -25 7 -35 -15 -71 -15 -23 -26 -52 -26 -64 2 -41 -12 -122 -26
-153 -8 -16 -17 -55 -20 -87 -4 -38 -11 -58 -22 -62 -12 -5 -13 -9 -3 -21 6
-8 9 -19 5 -25 -3 -5 1 -10 9 -10 25 0 19 -19 -16 -53 -28 -26 -30 -32 -15
-35 21 -4 23 -28 2 -36 -8 -3 -12 -12 -9 -21 4 -10 0 -15 -12 -15 -18 -1 -18
-2 -2 -13 21 -16 14 -92 -11 -121 -11 -13 -16 -39 -17 -88 0 -47 -5 -72 -14
-78 -8 -5 -10 -15 -5 -26 10 -25 13 -116 5 -129 -4 -5 -10 -22 -14 -37 -5 -21
-3 -28 9 -28 23 0 18 -19 -9 -29 -23 -9 -44 -41 -27 -41 11 0 12 -78 1 -85 -5
-3 -20 0 -34 7 -23 10 -29 8 -49 -10 -32 -30 -49 -27 -69 9 -25 43 -23 47 25
51 29 2 41 7 39 17 -1 7 3 20 10 29 14 16 15 16 -52 -4 -23 -7 -41 29 -43 88
-1 32 -5 38 -29 44 -47 10 -27 34 28 34 28 0 30 6 9 26 -8 8 -12 21 -9 28 3 8
1 17 -5 21 -18 10 -13 40 10 61 l20 18 -22 8 c-17 7 -19 11 -10 22 8 10 9 16
1 21 -17 10 -12 25 12 34 22 8 22 9 -10 25 -17 9 -32 19 -32 22 0 4 14 22 30
41 38 43 38 73 -1 112 -26 26 -30 36 -24 64 4 17 16 48 27 67 13 22 18 44 14
62 -6 32 13 50 21 19 5 -19 6 -20 29 -3 13 9 24 25 24 35 0 19 -15 23 -25 7
-11 -18 -25 -10 -25 15 0 14 5 25 10 25 6 0 10 5 10 10 0 6 -7 10 -15 10 -20
0 -19 10 5 40 24 31 25 46 3 55 -16 6 -15 8 6 24 13 10 20 21 15 24 -5 3 -9
42 -9 88 1 76 3 83 28 101 26 19 27 29 4 76 -13 27 1 58 27 56 8 -1 18 7 21
17 3 10 15 21 26 24 25 8 24 22 -1 30 -27 9 -26 35 2 35 21 0 21 0 2 15 -15
12 -16 16 -5 24 11 7 10 11 -5 19 -17 9 -17 14 -7 42 6 17 9 38 7 45 -3 8 9
32 26 54 30 37 32 44 26 90 -6 46 -4 51 21 71 25 19 26 23 10 31 -20 12 -23
44 -3 36 22 -9 26 3 11 27 -18 29 -8 71 21 87 15 8 24 21 24 36 0 13 8 35 17
49 13 20 14 27 4 34 -9 5 -10 13 -3 26 17 34 31 87 26 96 -3 4 4 20 15 34 12
15 21 31 21 36 0 6 9 21 20 35 12 16 18 34 14 45 -3 12 4 32 21 53 26 35 39
42 49 27z m5411 -12 c-3 -5 -15 -10 -26 -10 -10 0 -19 5 -19 10 0 6 12 10 26
10 14 0 23 -4 19 -10z m-16 -41 c19 -15 22 -22 12 -32 -9 -9 -16 -7 -31 13
-33 43 -22 54 19 19z m-2419 -116 c0 -3 -7 -15 -17 -25 -21 -23 -73 -25 -73
-2 0 10 6 14 14 11 8 -3 20 1 26 9 12 14 50 20 50 7z m-2150 -203 c0 -38 -4
-50 -15 -50 -19 0 -22 22 -10 78 9 40 25 23 25 -28z m110 -30 c0 -19 -20 -27
-33 -13 -8 7 11 33 24 33 5 0 9 -9 9 -20z m3650 -220 c0 -5 -7 -10 -15 -10 -8
0 -15 5 -15 10 0 6 7 10 15 10 8 0 15 -4 15 -10z m-2190 -145 c0 -9 -6 -12
-15 -9 -8 4 -15 10 -15 15 0 5 7 9 15 9 8 0 15 -7 15 -15z m-962 -219 c3 -13
-1 -17 -14 -14 -11 2 -20 11 -22 22 -3 13 1 17 14 14 11 -2 20 -11 22 -22z
m-1778 -102 c0 -8 -7 -14 -15 -14 -15 0 -21 21 -9 33 10 9 24 -2 24 -19z
m1873 -126 c63 -12 72 -22 30 -34 -21 -5 -24 -8 -10 -11 9 -3 17 -10 17 -18 0
-9 -24 -15 -77 -20 -42 -4 -84 -11 -92 -15 -9 -5 -54 -16 -101 -25 -47 -9 -88
-19 -92 -23 -4 -4 -8 -38 -10 -76 l-3 -69 70 3 c39 2 79 3 90 2 82 -6 121 -10
127 -11 12 -2 -45 -81 -58 -81 -7 0 -25 -6 -41 -14 -36 -18 -89 -36 -133 -46
-65 -14 -100 -32 -100 -48 0 -10 -3 -33 -6 -53 l-6 -36 108 5 c87 3 113 1 129
-11 l20 -16 -20 -15 c-20 -14 -20 -15 -1 -29 48 -35 -28 -78 -144 -82 -49 -1
-85 3 -103 12 -15 7 -32 11 -37 8 -14 -9 -22 13 -11 34 8 14 6 22 -9 36 -20
18 -20 17 -20 -43 0 -61 -14 -92 -22 -48 -6 33 -3 159 7 238 8 66 7 67 -18 73
-56 14 -59 59 -4 63 17 2 35 6 39 10 9 9 39 193 33 202 -3 4 -23 10 -46 14
-48 8 -48 26 1 42 35 12 50 45 30 69 -15 18 10 23 90 19 90 -6 97 -5 165 4 68
9 125 6 208 -10z m1509 -26 c-1 -20 3 -35 11 -38 11 -4 9 -21 -8 -87 -20 -74
-57 -326 -57 -386 0 -13 7 -28 16 -33 9 -5 16 -17 16 -27 0 -26 36 -56 46 -40
26 43 64 121 64 132 0 19 57 127 79 151 11 12 19 26 19 31 -1 6 6 11 15 13 13
3 17 -4 17 -24 0 -25 2 -27 15 -14 19 20 32 80 16 80 -6 0 -11 -4 -11 -10 0
-15 -27 -12 -33 3 -3 7 4 19 16 27 15 9 22 10 25 1 7 -22 21 -10 48 44 16 30
34 55 42 55 8 0 12 6 9 13 -3 7 4 24 14 38 10 13 19 30 19 37 0 8 5 12 12 10
14 -5 30 -56 19 -62 -4 -3 -14 -38 -21 -78 -7 -40 -18 -79 -24 -87 -6 -8 -10
-22 -8 -32 3 -20 -36 -128 -73 -199 -12 -25 -26 -56 -30 -70 -13 -43 -41 -74
-112 -123 -91 -63 -126 -65 -206 -14 -31 20 -61 37 -65 37 -17 0 -64 58 -62
76 1 11 1 24 0 29 -10 51 23 231 56 300 7 17 15 44 17 60 2 17 6 35 9 40 3 6
11 28 18 50 7 22 19 50 27 63 8 13 12 29 10 37 -7 18 14 36 38 33 16 -2 19
-10 17 -36z m-2042 -38 c0 -8 -4 -12 -10 -9 -5 3 -10 10 -10 16 0 5 5 9 10 9
6 0 10 -7 10 -16z m-440 -304 c0 -5 -4 -10 -10 -10 -5 0 -10 5 -10 10 0 6 5
10 10 10 6 0 10 -4 10 -10z m2291 -379 l23 -18 -22 -7 c-27 -9 -42 0 -42 25 0
24 11 24 41 0z m-3326 -11 c3 -5 -1 -10 -9 -10 -9 0 -16 5 -16 10 0 6 4 10 9
10 6 0 13 -4 16 -10z m4805 -130 c0 -12 -40 -33 -47 -26 -9 8 28 47 38 40 5
-3 9 -9 9 -14z m-4830 -120 c0 -5 -9 -10 -21 -10 -11 0 -17 5 -14 10 3 6 13
10 21 10 8 0 14 -4 14 -10z m15 -270 c-5 -8 -11 -8 -17 -2 -6 6 -7 16 -3 22 5
8 11 8 17 2 6 -6 7 -16 3 -22z m3665 -80 c0 -5 -4 -10 -10 -10 -5 0 -10 5 -10
10 0 6 5 10 10 10 6 0 10 -4 10 -10z m-3660 -15 c0 -8 -6 -15 -14 -15 -17 0
-28 14 -19 24 12 12 33 6 33 -9z m4510 -96 c0 -5 -4 -9 -10 -9 -5 0 -10 7 -10
16 0 8 5 12 10 9 6 -3 10 -10 10 -16z m-887 -284 c1 -5 -6 -11 -15 -13 -11 -2
-18 3 -18 13 0 17 30 18 33 0z m289 -87 c-15 -15 -26 -4 -18 18 5 13 9 15 18
6 9 -9 9 -15 0 -24z m-232 -13 c0 -8 -7 -15 -15 -15 -8 0 -15 7 -15 15 0 8 7
15 15 15 8 0 15 -7 15 -15z m70 -13 c0 -5 -6 -16 -13 -26 -12 -17 -14 -17 -27
-1 -12 14 -12 18 1 26 18 11 39 12 39 1z m250 -187 c27 -17 48 -23 64 -19 34
8 43 -14 11 -26 -43 -16 -70 -12 -98 18 -24 25 -35 52 -22 52 3 0 23 -11 45
-25z"/>
<path d="M7490 3740 c0 -5 5 -10 10 -10 6 0 10 5 10 10 0 6 -4 10 -10 10 -5 0
-10 -4 -10 -10z"/>
<path d="M7232 3510 c0 -14 2 -19 5 -12 2 6 2 18 0 25 -3 6 -5 1 -5 -13z"/>
<path d="M7112 3495 c-17 -8 -32 -15 -32 -17 0 -2 18 -2 40 0 22 2 40 8 40 12
0 17 -16 18 -48 5z"/>
<path d="M7040 3480 c0 -5 5 -10 11 -10 5 0 7 5 4 10 -3 6 -8 10 -11 10 -2 0
-4 -4 -4 -10z"/>
<path d="M9050 3460 c0 -5 5 -10 10 -10 6 0 10 5 10 10 0 6 -4 10 -10 10 -5 0
-10 -4 -10 -10z"/>
<path d="M8566 3228 c-19 -27 -17 -30 22 -22 34 7 43 28 16 38 -22 8 -21 9
-38 -16z"/>
<path d="M5760 3110 c0 -20 5 -30 15 -30 16 0 19 17 9 44 -10 26 -24 18 -24
-14z"/>
<path d="M6630 3105 c0 -13 4 -14 20 -5 11 6 20 13 20 15 0 3 -9 5 -20 5 -11
0 -20 -7 -20 -15z"/>
<path d="M5746 3052 c-12 -20 23 -34 70 -27 40 6 45 4 42 -12 -2 -12 4 -19 21
-21 l23 -4 -28 36 c-16 19 -31 32 -34 27 -7 -11 -74 -10 -81 2 -4 6 -9 5 -13
-1z"/>
<path d="M6987 3043 c-12 -12 -7 -22 8 -17 8 4 15 10 15 15 0 11 -14 12 -23 2z"/>
<path d="M5406 3024 c-4 -10 -1 -14 6 -12 15 5 23 28 10 28 -5 0 -13 -7 -16
-16z"/>
<path d="M6575 3020 c-3 -5 1 -10 9 -10 9 0 16 5 16 10 0 6 -4 10 -9 10 -6 0
-13 -4 -16 -10z"/>
<path d="M5860 2960 c0 -5 5 -10 11 -10 5 0 7 5 4 10 -3 6 -8 10 -11 10 -2 0
-4 -4 -4 -10z"/>
<path d="M5910 2901 c0 -13 29 -35 37 -28 7 8 -15 37 -28 37 -5 0 -9 -4 -9 -9z"/>
<path d="M6612 2859 c2 -7 10 -15 17 -17 8 -3 12 1 9 9 -2 7 -10 15 -17 17 -8
3 -12 -1 -9 -9z"/>
<path d="M6125 2690 c3 -5 10 -10 16 -10 5 0 9 5 9 10 0 6 -7 10 -16 10 -8 0
-12 -4 -9 -10z"/>
<path d="M8070 2640 c0 -5 5 -10 11 -10 5 0 7 5 4 10 -3 6 -8 10 -11 10 -2 0
-4 -4 -4 -10z"/>
<path d="M6202 2619 c2 -7 10 -15 17 -17 8 -3 12 1 9 9 -2 7 -10 15 -17 17 -8
3 -12 -1 -9 -9z"/>
<path d="M8726 2585 c4 -8 8 -15 10 -15 2 0 4 7 4 15 0 8 -4 15 -10 15 -5 0
-7 -7 -4 -15z"/>
<path d="M7806 2521 c-4 -7 -5 -15 -2 -18 9 -9 19 4 14 18 -4 11 -6 11 -12 0z"/>
<path d="M6600 2410 c0 -5 7 -10 15 -10 8 0 15 5 15 10 0 6 -7 10 -15 10 -8 0
-15 -4 -15 -10z"/>
<path d="M6648 2243 c7 -3 16 -2 19 1 4 3 -2 6 -13 5 -11 0 -14 -3 -6 -6z"/>
<path d="M6632 2188 c3 -7 15 -14 29 -16 24 -4 24 -3 4 12 -24 19 -38 20 -33
4z"/>
<path d="M6725 2060 c3 -5 8 -10 11 -10 2 0 4 5 4 10 0 6 -5 10 -11 10 -5 0
-7 -4 -4 -10z"/>
<path d="M6240 1990 c0 -5 7 -10 15 -10 8 0 15 5 15 10 0 6 -7 10 -15 10 -8 0
-15 -4 -15 -10z"/>
<path d="M8675 1860 c-3 -5 -1 -10 4 -10 6 0 11 5 11 10 0 6 -2 10 -4 10 -3 0
-8 -4 -11 -10z"/>
<path d="M6108 1842 c-10 -2 -18 -8 -18 -13 0 -13 27 -11 35 2 9 13 4 16 -17
11z"/>
<path d="M6744 1835 c11 -8 29 -15 40 -15 28 0 8 16 -29 24 -28 6 -29 5 -11
-9z"/>
<path d="M8628 1843 c7 -3 16 -2 19 1 4 3 -2 6 -13 5 -11 0 -14 -3 -6 -6z"/>
<path d="M8714 1778 c-4 -6 -2 -14 4 -16 17 -5 15 -22 -2 -22 -8 0 -18 -4 -21
-10 -3 -5 2 -10 12 -10 16 0 53 45 53 64 0 11 -39 6 -46 -6z"/>
<path d="M6041 1763 l-22 -18 29 -1 c24 -1 28 2 25 18 -6 22 -6 22 -32 1z"/>
<path d="M6790 1776 c0 -2 7 -9 15 -16 12 -10 15 -10 15 4 0 9 -7 16 -15 16
-8 0 -15 -2 -15 -4z"/>
<path d="M8696 1665 c-3 -9 0 -15 9 -15 8 0 15 7 15 15 0 8 -4 15 -9 15 -5 0
-11 -7 -15 -15z"/>
<path d="M7740 1610 c0 -5 5 -10 11 -10 5 0 7 5 4 10 -3 6 -8 10 -11 10 -2 0
-4 -4 -4 -10z"/>
<path d="M5550 1600 c0 -5 5 -10 10 -10 6 0 10 5 10 10 0 6 -4 10 -10 10 -5 0
-10 -4 -10 -10z"/>
<path d="M8366 1583 c-3 -3 -3 -10 0 -14 7 -12 34 -11 34 0 0 11 -26 22 -34
14z"/>
<path d="M7700 1529 c0 -11 4 -18 10 -14 5 3 7 12 3 20 -7 21 -13 19 -13 -6z"/>
<path d="M6730 1510 c0 -5 5 -10 10 -10 6 0 10 5 10 10 0 6 -4 10 -10 10 -5 0
-10 -4 -10 -10z"/>
<path d="M7620 1493 c0 -4 8 -17 16 -28 15 -20 16 -20 12 4 -3 22 -28 44 -28
24z"/>
<path d="M7670 1484 c0 -17 28 -49 36 -41 4 4 -2 17 -14 30 -12 12 -22 17 -22
11z"/>
<path d="M7757 1459 c-9 -6 -17 -14 -17 -19 0 -16 30 -11 37 5 8 21 1 25 -20
14z"/>
<path d="M7650 1420 c0 -5 5 -10 10 -10 6 0 10 5 10 10 0 6 -4 10 -10 10 -5 0
-10 -4 -10 -10z"/>
<path d="M7820 1419 c0 -5 5 -7 10 -4 6 3 10 8 10 11 0 2 -4 4 -10 4 -5 0 -10
-5 -10 -11z"/>
<path d="M6813 1413 c-22 -8 -14 -23 12 -23 15 0 36 -11 50 -25 13 -15 26 -22
29 -16 4 5 2 12 -4 16 -5 3 -10 16 -10 29 0 18 -6 22 -32 23 -18 0 -39 -2 -45
-4z"/>
<path d="M6800 1360 c0 -5 10 -10 23 -10 18 0 19 2 7 10 -19 13 -30 13 -30 0z"/>
<path d="M7153 1363 c-20 -3 -33 -10 -33 -19 0 -8 4 -14 9 -14 19 0 71 23 71
31 0 5 -3 8 -7 7 -5 0 -23 -3 -40 -5z"/>
<path d="M7229 1339 c-19 -11 2 -32 28 -27 17 3 17 4 2 19 -11 11 -22 14 -30
8z"/>
<path d="M8460 1295 c-7 -8 -9 -15 -4 -15 4 0 3 -5 -4 -12 -16 -16 -15 -28 1
-28 11 0 37 43 37 62 0 13 -17 9 -30 -7z"/>
<path d="M7660 1250 c0 -5 5 -10 10 -10 6 0 10 5 10 10 0 6 -4 10 -10 10 -5 0
-10 -4 -10 -10z"/>
<path d="M5340 1231 c0 -26 16 -35 24 -15 10 25 7 34 -9 34 -8 0 -15 -9 -15
-19z"/>
<path d="M8375 1233 c-11 -3 -22 -9 -25 -13 -3 -3 -14 -12 -25 -18 -19 -11
-19 -11 5 -11 14 0 43 11 65 24 39 24 32 31 -20 18z"/>
<path d="M6950 1215 c0 -8 7 -15 16 -15 14 0 14 3 4 15 -7 8 -14 15 -16 15 -2
0 -4 -7 -4 -15z"/>
<path d="M5508 1183 c7 -3 16 -2 19 1 4 3 -2 6 -13 5 -11 0 -14 -3 -6 -6z"/>
<path d="M8225 1171 c-10 -18 14 -21 47 -7 l33 14 -37 1 c-20 1 -39 -3 -43 -8z"/>
<path d="M7056 1125 c4 -8 8 -15 10 -15 2 0 4 7 4 15 0 8 -4 15 -10 15 -5 0
-7 -7 -4 -15z"/>
<path d="M8250 1130 c-22 -14 -5 -23 20 -10 12 6 28 9 35 6 8 -3 17 -1 20 4 8
13 -55 13 -75 0z"/>
<path d="M7380 868 c0 -26 17 -41 35 -31 16 9 16 11 0 26 -20 20 -35 22 -35 5z"/>
<path d="M7431 704 c0 -11 3 -14 6 -6 3 7 2 16 -1 19 -3 4 -6 -2 -5 -13z"/>
<path d="M4956 3038 c-8 -31 16 -55 33 -34 9 11 10 20 1 35 -14 27 -26 27 -34
-1z"/>
<path d="M5043 3043 c-19 -4 -21 -8 -12 -27 6 -12 19 -27 29 -34 16 -10 18 -8
13 20 -3 19 0 34 9 39 14 10 3 10 -39 2z"/>
<path d="M4830 3015 c0 -9 6 -12 15 -9 8 4 15 10 15 15 0 5 -7 9 -15 9 -8 0
-15 -7 -15 -15z"/>
<path d="M5035 2950 c3 -5 11 -10 16 -10 6 0 7 5 4 10 -3 6 -11 10 -16 10 -6
0 -7 -4 -4 -10z"/>
<path d="M4938 2925 c-3 -14 -1 -25 3 -25 18 0 8 -32 -11 -37 -11 -3 -20 -14
-20 -24 0 -11 -7 -22 -15 -25 -8 -4 -15 -12 -15 -18 0 -8 19 -13 58 -13 31 0
47 2 34 4 -16 3 -22 9 -18 20 4 11 2 13 -9 9 -19 -7 -20 18 -1 34 8 6 16 21
18 33 2 14 10 21 21 21 30 -3 15 29 -19 40 -18 5 -22 2 -26 -19z"/>
<path d="M4095 2861 c-7 -34 -1 -51 20 -51 11 0 13 8 8 33 -8 46 -20 54 -28
18z"/>
<path d="M5010 2755 c0 -8 4 -15 9 -15 5 0 14 7 21 15 10 13 9 15 -9 15 -12 0
-21 -6 -21 -15z"/>
<path d="M4880 2720 c0 -5 7 -10 15 -10 8 0 15 5 15 10 0 6 -7 10 -15 10 -8 0
-15 -4 -15 -10z"/>
<path d="M5018 2709 c-34 -25 -36 -42 -6 -37 14 2 24 13 29 31 4 15 7 27 6 27
-1 0 -14 -10 -29 -21z"/>
<path d="M5072 2718 c-19 -19 -14 -30 8 -18 11 6 20 15 20 20 0 14 -14 12 -28
-2z"/>
<path d="M4990 2635 c0 -8 4 -15 9 -15 5 0 11 7 15 15 3 9 0 15 -9 15 -8 0
-15 -7 -15 -15z"/>
<path d="M3877 2623 c-10 -9 -9 -23 2 -23 5 0 11 7 15 15 5 15 -5 20 -17 8z"/>
<path d="M4880 2590 c0 -5 7 -10 16 -10 8 0 12 5 9 10 -3 6 -10 10 -16 10 -5
0 -9 -4 -9 -10z"/>
<path d="M4735 2559 c-11 -17 1 -21 15 -4 8 9 8 15 2 15 -6 0 -14 -5 -17 -11z"/>
<path d="M4740 2510 c0 -5 5 -10 11 -10 5 0 7 5 4 10 -3 6 -8 10 -11 10 -2 0
-4 -4 -4 -10z"/>
<path d="M3830 2501 c0 -6 5 -13 10 -16 6 -3 10 1 10 9 0 9 -4 16 -10 16 -5 0
-10 -4 -10 -9z"/>
<path d="M4715 2450 c-3 -5 1 -10 9 -10 9 0 16 5 16 10 0 6 -4 10 -9 10 -6 0
-13 -4 -16 -10z"/>
<path d="M3854 2431 c-2 -2 -4 -8 -4 -13 0 -12 24 -10 43 5 16 11 15 12 -9 12
-14 0 -28 -2 -30 -4z"/>
<path d="M5040 2339 c0 -5 5 -7 10 -4 6 3 10 8 10 11 0 2 -4 4 -10 4 -5 0 -10
-5 -10 -11z"/>
<path d="M3795 2330 c-3 -5 3 -10 14 -10 12 0 21 5 21 10 0 6 -6 10 -14 10 -8
0 -18 -4 -21 -10z"/>
<path d="M3770 2300 c0 -5 5 -10 11 -10 5 0 7 5 4 10 -3 6 -8 10 -11 10 -2 0
-4 -4 -4 -10z"/>
<path d="M3760 2240 c0 -5 5 -10 10 -10 6 0 10 5 10 10 0 6 -4 10 -10 10 -5 0
-10 -4 -10 -10z"/>
<path d="M3735 2160 c-3 -5 -1 -10 4 -10 6 0 11 5 11 10 0 6 -2 10 -4 10 -3 0
-8 -4 -11 -10z"/>
<path d="M4680 2045 c0 -9 5 -15 11 -13 6 2 11 8 11 13 0 5 -5 11 -11 13 -6 2
-11 -4 -11 -13z"/>
<path d="M4996 2011 c-4 -7 -5 -15 -2 -18 9 -9 19 4 14 18 -4 11 -6 11 -12 0z"/>
<path d="M3666 1951 c-4 -7 -5 -15 -2 -18 9 -9 19 4 14 18 -4 11 -6 11 -12 0z"/>
<path d="M3805 1899 c-10 -14 -1 -21 19 -13 9 3 13 10 10 15 -7 12 -21 11 -29
-2z"/>
<path d="M4462 1848 c6 -76 23 -115 42 -99 7 6 16 8 19 4 13 -13 7 6 -13 40
-12 19 -22 52 -24 73 -2 21 -9 40 -16 42 -10 4 -12 -11 -8 -60z"/>
<path d="M3690 1884 c0 -8 5 -12 10 -9 6 3 10 10 10 16 0 5 -4 9 -10 9 -5 0
-10 -7 -10 -16z"/>
<path d="M4960 1889 c0 -5 5 -7 10 -4 6 3 10 8 10 11 0 2 -4 4 -10 4 -5 0 -10
-5 -10 -11z"/>
<path d="M4650 1789 c0 -5 5 -7 10 -4 6 3 10 8 10 11 0 2 -4 4 -10 4 -5 0 -10
-5 -10 -11z"/>
<path d="M4765 1370 c10 -11 20 -20 22 -20 1 0 3 9 3 20 0 14 -7 20 -22 20
-20 0 -21 -1 -3 -20z"/>
<path d="M3712 1347 c-12 -13 -22 -27 -22 -31 0 -10 59 36 59 47 2 14 -16 7
-37 -16z"/>
<path d="M3756 1253 c-8 -19 7 -38 22 -29 11 7 4 46 -8 46 -4 0 -11 -8 -14
-17z"/>
<path d="M5180 1984 c0 -11 5 -14 16 -10 9 3 20 6 25 6 5 0 9 5 9 10 0 6 -11
10 -25 10 -16 0 -25 -6 -25 -16z"/>
<path d="M7070 2200 c0 -5 5 -10 10 -10 6 0 10 5 10 10 0 6 -4 10 -10 10 -5 0
-10 -4 -10 -10z"/>
<path d="M7360 2168 c-12 -22 -12 -22 6 -6 10 10 15 20 12 24 -4 3 -12 -5 -18
-18z"/>
</g>
</svg>
