<svg id="Layer_2" data-name="Layer 2" xmlns="http://www.w3.org/2000/svg" viewBox="0 0 1000 1000"><path d="M285.83,389.85c-.86,2.69-1.15,5.48-2.21,8.76-1.38,4.22-4.38,9.62-6.13,14s-3.15,7.69-5.23,12A47.79,47.79,0,0,0,267.61,442a5.57,5.57,0,0,1,0,1.05,4.58,4.58,0,0,1-.31,1.8c-1,1.8-2,2.95-3.32,4.87-2.22,3.33-4.84,7.48-7.09,10.89a54.79,54.79,0,0,1-3.56,4.44c-1.13,1.38-1.37,2.64-2.26,4.06-.43.69-1.45,1.34-1.72,2s.09.73,0,1.42a3,3,0,0,1-1,1.9c-.58.53-1.2.26-1.76,1.08a15.58,15.58,0,0,0-1.75,3.29c-1,2.88-3.48,6.39-5.07,8.69-2.64,3.83-4.49,7-6.67,10.74a51.93,51.93,0,0,0-2.78,5.59c-.88,2-1.14,4.28-2,6.32A102.62,102.62,0,0,1,215,532.68c-1.11,1.44-2.68,2.57-3.43,4.29-1.77,4-2.87,8.43-5,12.22-.7,1.23-2.21,1.43-2.91,2.5-2.22,3.35-2.87,7.37-4.73,10.82s-5.42,5.87-7.64,8.83c-1.37,1.83-1.3,4-2.11,5.71s-2.12,2.62-3,4-1.91,1.84-2.62,3.12c-.94,1.66-1.36,4.21-2.68,5.62-2.31,2.46-4.32,6.2-7.26,7.44-6,2.51-8.81-.33-12.84-4.33a22.54,22.54,0,0,1-5.29-8.18c-.52-1.34.25-2.3-.75-3.72a14.45,14.45,0,0,0-2-1.65c-.7-.54-2.15-1.51-2.46-2.62s.31-2.45.5-3.45.2-1.61.36-2.53c-1.35-4.21-2.43-8.4-3.64-12.7-.38-1.35-1.3-3.53-1.19-4.86.2-2.38,2-4,1.75-6.27s-2.2-3.38-2.57-5.56c-.12-.7.46-1.28.5-2,.07-1.68-.86-3.14-.78-4.89.17-3.31,1.37-6.56,1.66-9.92.08-.89-.5-1.74-.46-2.72s.52-1.85.65-2.91c.47-3.69.17-7.35.24-11.13s.68-7.59.84-11.44c.25-5.83.24-11.79-.07-17.63a5.49,5.49,0,0,0-.1-.57c0-.16,0-.17,0-.32-2.75,3.15-5.54,6-8.3,9.24a22,22,0,0,0-2.46,3.44c-.73,1.29-.94,2.88-1.79,4.27-3.75,6.14-8.38,11.72-12.83,17.44a41.12,41.12,0,0,0-3.86,6.13c-.49.93-.73,2-1.25,2.94-.91,1.64-2.11,3.11-3.05,4.73a11.28,11.28,0,0,0-1,2.54,12,12,0,0,1-.66,2.5c-3.23,4.61-6.16,9-9.44,13.44-.07.1-.07,0-.11.21a22.47,22.47,0,0,1-.93,3.76,27.34,27.34,0,0,1-2.56,3.87,30.59,30.59,0,0,1-2.24,2.35,42.44,42.44,0,0,1-5.37,5.51c-.64.57-1.16,1.34-1.76,1.92s-1.3.69-1.82,1.39-.61,1.87-1.2,2.71c-1.47,2.11-3.34,4.06-4.81,6.22-.51.76-.64,1.77-1.08,2.57A14.76,14.76,0,0,1,80,577.18c-1.33,1.6-2.78,3.28-4.11,4.83A19.57,19.57,0,0,1,73,584.68c-.88.64-1.86.61-2.4,1.26-1.76,2.11-.55,3.81-1.37,6.37-.16.49-2.3.5-3,1.33s-.75,2.71-1.33,3.84-1.82.29-2.58,1.52-.46,3.43-.15,5a35,35,0,0,1-7.1-1c-.38-.09-1.35.09-1,.46.94,1,2.35,1,3.55,1.42a9.81,9.81,0,0,1-2.45.82c-.24.06-.5.43-.76.41-1,0-2-.6-3-.4s-.25,1.24-.76,1.68a7,7,0,0,1-3.25,1.47c-1.22.27-2.43-.26-3.58-.47a.49.49,0,0,0-.62.34c-.34.74-.56,1.71-.83,2.37s-1.26-.13-1.37-.24a3.85,3.85,0,0,1-1-2.09,22.5,22.5,0,0,1-.56-6.8c.1-1.11.55-2.24.63-3.15s-.09-1.55,0-2.28a17.92,17.92,0,0,1,2.19-5.8,3,3,0,0,0,.26-2.36c-.16-.91-.4-1.38.23-2.07.19-.2.69-.27.71-.56.22-2.58-1.2-4.68-.5-7.26.08-.31.55-.48.76-.82a25.17,25.17,0,0,0,1.51-3.71c.61-1.39,2.17-3.18,2.84-4.55a21.62,21.62,0,0,0,1-4.05,53.91,53.91,0,0,1,3.38-7.91c.38-.8.46-1.82.85-2.51s.81-.82,1.23-1.42-.29-.71.55-1.34,1.22,1.13,2.15-1c.44-1,.69-5.34,1.06-6.55,1.22-3.91,3.16-6.65,5.21-9.83.74-1.15,1.65-1.91,2.26-3,1.93-3.57,3.35-7.26,5.31-10.81,1.38-2.5,3-4.85,4.39-7.37,2-3.59,4-7.22,6.18-10.73.51-.84,1-1.69,1.46-2.55,2.77-5,5.57-10,8.31-15a47.6,47.6,0,0,1,3.37-5.72c1.18-1.51,2-1.81,2.67-3.54.26-.65-.13-1.7.3-2.54a76.43,76.43,0,0,1,4.37-6.62c2.34-3.54,4.41-7.12,6.62-10.62,1.88-3,3.85-5.93,5.8-8.75a29.65,29.65,0,0,0,3.6-6.73c1.24.35,2.45-2.48,2.64-2.92,1.08-2.48,2.5-4.81,2.86-7.09.88-5.6.14-10.86-.21-16.22a4.2,4.2,0,0,1,.78-3.24c.75-1.16,1.77-.89,2.92-1.61s1.74-1.93,2.88-2.95a24.26,24.26,0,0,1,4.46-2.52c4.15-2.26,8.41-4.8,12.59-6.91,2.26-1.15,4.78-2.28,6.88-3.23a15.58,15.58,0,0,1,5.45-1.53c.84-.11,1,1.14,2.17.59s1.38-1.3,2.74-2.31c7-5.2,13.47-8.56,22.58-6.91a1.57,1.57,0,0,1,.85.4,21.26,21.26,0,0,1,3,4.9c.84,1.69,2.11,4.1,2.93,5.6,1.69,3.11,2.74,9.4,3.5,11.86,1,3.33,1.73,10.29,1.81,11.48.54,7,.12,10.83-.22,16.67A10,10,0,0,0,199,438c.26,1,.89,1.24,1.05,2.1a5.87,5.87,0,0,1-.25,2.3,58,58,0,0,0-.78,8.09,76.73,76.73,0,0,1-.55,8.13,138.27,138.27,0,0,1-3.87,18.57c-.67,2.33-1.62,4.75-2.08,7.17-.07.34-.21.79-.26,1.11-.24,1.49-.44,3-.63,4.42,0,.07-.06.24,0,.19s.07-.19.12-.3c1.28-2.62,3.18-5.32,4.43-7.88,2.15-4.4,3.74-8.81,6-13.07a119,119,0,0,1,6.38-10.57,47.4,47.4,0,0,0,4.53-8.05c1.41.27,3-3.12,3.29-3.62,1.53-2.86,3.52-5.77,4.18-8.38,1.61-6.38,1.22-12.26,1.16-18.4a4.94,4.94,0,0,1,.94-3.58c.83-1.32,2-1.06,3.2-1.92s1.94-2.2,3.21-3.38,3.37-2.1,5-3.06c4.62-2.76,9.37-6,13.94-8.68,2.47-1.47,5.21-2.93,7.46-4.15a20.59,20.59,0,0,1,5.83-2.21c.89-.21,1.22.94,2.31.38a13.12,13.12,0,0,0,2.84-2.49c5.79-5.55,13.21-11.21,21.12-7C291.53,385.87,286.68,387.16,285.83,389.85Zm-94.3,100.74c-.11.83-.24,1.66-.35,2.51.07-.34.1-.33.18-.75S191.51,491.1,191.53,490.59Z"/><path d="M456.25,386.91c-.84,1.14-2,1.84-2.75,3.15s-1,2.88-1.72,4.36a26.07,26.07,0,0,1-3.12,4.2c-1.13,1.39-2.14,3-3.21,4.55-2.28,3.28-4.16,6.49-7.53,8.94a16.85,16.85,0,0,1-8.18,3c-2.72.16-4.69-1.35-7.34-.8a7.66,7.66,0,0,0-4.19,3c-1.14,1.38-2,2.93-3.75,3.6a4.46,4.46,0,0,1-1.89-.06A88.77,88.77,0,0,0,390,422.63c-5.44,1.08-10.64,2.13-16.08,2.91a65.69,65.69,0,0,0-9.81,2.53,11,11,0,0,0-3.21,1.44,9.26,9.26,0,0,0-2,2.22c-4,5.54-8.07,11.17-12.12,16.62-1.85,2.48-3.65,5.33-5.51,7.51s-3.62,3.36-5,5.68c2.62-1.06,6.2-2.82,8.51-3.85s3.7-1.12,5.69-1.93,3.07-1.52,5.15-2.27c3.75-1.33,7.16-2.26,11.32-3.34,5-1.29,9.44-2.81,15.16-4,3.46-.7,9.76-1.95,12.93,1.37,1.41,1.47-.21,2.74-1.14,4a89,89,0,0,0-5,7.91q-3.42,5.86-7.24,11.52a5.46,5.46,0,0,1-2,2.14c-2.58,1.27-5.58,1.58-8.28,2.42-4,1.26-7.47,2.71-11.46,4.28s-7,1.81-11.48,3.58c-10.93,4.3-23,9.21-34.15,14-3.62,1.56-5.39,5-8.39,7.64s-6.7,5.37-9.58,8.4c-.7.73-1.2,1.76-1.93,2.58-3.27,3.64-6.91,6.18-10.84,9.32a15.5,15.5,0,0,0-4.53,5.73c-.39.8-1.41,4.29-1.86,5.51,8.15-2.55,15.47-6.39,23.05-10.44,9.95-5.33,19.92-10.44,30.42-14.79,9.41-3.9,18.17-6.12,28-10.37,5.54-2.4,12.53-6.53,19.37-4.39.41.13.63.53,1.27.41a3.2,3.2,0,0,0,1.79-1.16c1.3-1.39,3.68-3.85,5.84-3.14,1.44.48,2.74,5.08,2.66,6.43a4.4,4.4,0,0,1-1.31,2.42c-8.73,10.25-16.77,21.13-25.37,31.56a12.63,12.63,0,0,1-3,3c-3.15,1.89-6.78,2.56-10.18,3.85-4.79,1.82-9.59,3.5-14.39,5.27a152,152,0,0,0-15.82,6.86c-5.1,2.58-10.36,4.9-15.43,7.41-4.13,2.06-8.16,4.94-12.09,7s-7.83,4-11.59,5.81a128.64,128.64,0,0,1-24.07,8.6,7.49,7.49,0,0,0-4.47,2.72c-.48.66-.54,1.59-1.1,2.19-1.12,1.21-2.66,1.65-4.12,2.25a21.52,21.52,0,0,0-4,2.39c-4.19,2.93-8.61,6.43-12.93,8.8a40.11,40.11,0,0,1-18.4,5.18c-.35,0-1.45-.11-1.08.33,1,1.12,2.55,1.28,3.87,1.83a17.25,17.25,0,0,1-2.88.68c-.27.05-.59.36-.88.31-1.08-.14-2.28-.7-3.32-.61s-.42,1.09-1.06,1.5a9.11,9.11,0,0,1-3.87,1.22c-1.48.21-2.61-1-4.24-.62s-2.83,2.46-4.56,2.95c-.35-1.73-2.32-2.53-2.67-4.2s1.42-2,1.75-3.55-.83-2.83-.87-4.51,1.88-2.9,2-4.69c.23-3.43-1.36-6.76-.3-10.22.22-.7,1.25-.94,1.52-1.71.61-1.74-.6-3.35-.12-5.17.68-2.56,2.81-3.48,5.2-4.44s4.3-1.91,5.35-4.46c.3-.73-.19-1.36.18-2.26a13,13,0,0,1,2-2.54c2.51-3.14,3.65-7.18,5.67-10.64s5.23-5.91,7.46-9.22,4.28-6.78,6.77-9.89c.86-1.08,2-1.87,2.76-3,2.33-3.56,4.3-7.28,6.67-10.79,1.65-2.47,3.57-4.75,5.28-7.16,2.45-3.47,4.89-7,7.45-10.34,1.66-2.17,3.26-4.3,5-6.4,4.78-5.84,9.53-11.8,14.21-17.69,2.42-3,5.27-5.44,7.95-8.2,3.15-3.25,6.47-5.89,9.39-9.51,1.78-2.21,1.71-5.85,3.14-8.4s4.6-5.23,6.36-7.14c4.43-4.76,8.5-9,12.8-13.44,1.65-1.69,3.12-2.74,4.69-4.25.28-.27.58-.35.57-.63s-.77.05-.93-.14c-.66-6.58-1.54-13.1-2.61-19.65,6.87-3,14.11-6.33,21.42-7.82,31.29-6.38,62.17-11.75,93.76-16.54,6.69-1,14.05-2,21-1.71,1.27.05,2.49.47,3.78.43s2.59-.5,3.92-.48,2.63.21,3.27,1.54S457.08,385.75,456.25,386.91Z"/><path d="M586,402.4c-.33.91-.48,1.46-.9,2.39a42,42,0,0,1-9.47,13.7c-.56.52-1.28.26-2.13.47a20.19,20.19,0,0,0-3.3,1.15c-.8.39-1.58.92-1.5,1.71.16,1.5,1.47,1.71,2.17,2.85a1.33,1.33,0,0,1,0,1.15,12.55,12.55,0,0,1-1.76,3.53c-.35.47-.94.79-1.26,1.26s-.29.95-.6,1.44a54.78,54.78,0,0,1-6.37,8.06,7.53,7.53,0,0,1-.56.57l-.67.53c-3.62,3-7,6.58-10.51,9.61-4.92,4.23-10.05,7.48-15.45,11a16.54,16.54,0,0,0-2.68,1.91c-.78.78-1.19,1.86-2.17,2.6-1.58,1.19-3.73,1.77-5.42,2.88-2.27,1.48-3.88,3.49-5.78,5.42a84.52,84.52,0,0,1-9.72,8.5c-1.52,1.14-3.45,2.23-4.77,3.4s-1.95,2.26-3.07,3.44a95.9,95.9,0,0,1,2.22,14.6c.62,7.95,1.18,16.84,1.7,25.15.11,1.75.07,4.16.1,6,0,.27,0,.64,0,1,.06,1.47.22,2.55.3,4.13a60.4,60.4,0,0,1,.14,7.64c-.19,2.58-.63,5.14-1,7.81-.17,1.25-.46,3-.65,4.3a19.58,19.58,0,0,1-2.4.87s-.08-.11-.07.15,0,.44,0,.86-.07,1.78-.09,2.16,0,.24,0,.44.12.24.17.42a43.24,43.24,0,0,1,1.53,5.86,24.7,24.7,0,0,1-.21,5.24,14.66,14.66,0,0,0-.19,1.71c.11,2,.28,4.16.34,6a20.74,20.74,0,0,1,.06,2.55,18.23,18.23,0,0,1-3.35,9,24.39,24.39,0,0,1-.22,4.09,5.78,5.78,0,0,1-.18.65c-.52,1.93-1.06,3.8-1.5,5.76s-.76,4-1.29,5.93c-1.3-1.18-3-2.65-4.17-3.85a74.57,74.57,0,0,1-5.76-7.29,9.56,9.56,0,0,1-1.7-2.59c-.34-1.48.59-2.72-.06-4s-2.12-1.35-2.8-2.69c-.22-.43.13-.77-.08-1.49s-1-2-1.41-2.87a3.69,3.69,0,0,1,.17-2.88c.4-.81,1.36-1.2,1.9-1.54s.83-.19,1-.68a3.32,3.32,0,0,0-.49-3.34c-.73-1-1.67-1-2.68-1.48a6.66,6.66,0,0,0-.34-3.45c-.49-1.17-1.39-1.84-1.87-3.11-1.31-3.45-1.95-7.63-2.66-11.2-.94-4.68-2.1-8.89-3.32-13.41,0-.17-.12-.32-.16-.48s-.09-.43-.12-.56c-.78-4.11-1.77-9.13-2.61-12.95s-1.64-6.38-2.61-9.93c-2.59,2.55-5.34,5-8,7.39-7.93,7-15.56,14-23.26,21.2-1.62,1.52-3.56,3.14-5.32,4.64-.24.21-.57.46-.84.71-1.24,1.15-2.05,2.09-3.35,3.36a72.72,72.72,0,0,1-6.51,5.87c-2.37,1.8-4.92,3.39-7.51,5.12-1.22.81-2.92,1.92-4.2,2.79-1-.21-2-.57-3-.85-.05,0,.08-.19-.16,0s-.4.31-.84.71-1.42,1.3-2,1.84a1.5,1.5,0,0,0-.31.31,3.79,3.79,0,0,1-.15.43c-1.24,2.08-2,4-3.67,5.93a34.6,34.6,0,0,1-5,4.23,18.94,18.94,0,0,0-1.83,1.37c-1.73,1.71-3.61,3.67-5.32,5.26A23.11,23.11,0,0,1,382,595a33,33,0,0,1-12.23,4.77,41.28,41.28,0,0,1-4.7,3.31c-.22.13-.63.29-.9.41-2.66,1.29-5.21,2.46-7.86,3.87s-5.43,3-8.16,4.38c.06-2,0-4.5.19-6.33a83.75,83.75,0,0,1,2-10.09c.22-1,.36-2.57,1.05-3.32,1.24-1.36,3.49-1.73,4.24-3.31s-.76-2.57-.14-4.12c.19-.5,1-.68,1.34-1.12.75-1,.72-2.22,1.38-3.31a5,5,0,0,1,3-2.13,12.61,12.61,0,0,1,3.78-.12,4.34,4.34,0,0,0,1.68.07,3.51,3.51,0,0,0,2.51-3c.09-1.45-.95-2-1.63-3.06a5.6,5.6,0,0,0,2.51-2.69c.5-1.27.06-2.36.67-3.71,1.66-3.67,4.59-7.23,7-10.43,3.11-4.2,5.64-8.29,8.44-12.59.1-.16.16-.34.27-.5s.28-.37.38-.5c3.43-4.24,7.12-8.49,10.59-12.63,5.38-6.42,10.84-13.11,15.52-19.84,2.1-3,3-6.39,4.92-9.07s4.35-4.14,6.1-6.63c1.19-1.7,1.38-3.33,2.67-4.88.45-.55,1.25-.68,1.79-1.16,1.41-1.29,2.23-2.87,3.75-4.14a27.53,27.53,0,0,1,5.42-2.9,11.45,11.45,0,0,0,4.55-3.82c.48-.73.31-1.65.61-2.26a6.33,6.33,0,0,1,1-1.26c2.09-2.74,3.89-5.49,5.76-8.33-.16-.94-.26-1.91-.41-2.86-.47-3.1-1-6.2-1.29-9.32a11.76,11.76,0,0,0-1.09-4.28c-.22-.44-.69-.59-.72-1.19a2.61,2.61,0,0,1,.53-1.65c.39-.6,1.1-1.54,1.48-2.19a4.34,4.34,0,0,0,.8-1.85,4.21,4.21,0,0,0-.55-2,40.93,40.93,0,0,1-2.54-7.95c-.25-1.27-.19-2.82-.43-4.14-.13-.7-.75-1.25-.83-2-.49-4.26-.43-8.56-.94-12.8-.09-.73-.72-1.26-.83-2a18.35,18.35,0,0,1,.22-2.16,31.7,31.7,0,0,0-1.41-6.48c-.5-1.88-1-4-.39-5.55,1.67-4.12,4.33-6.41,7.28-9.43a10.8,10.8,0,0,1,1.41-.95c1.43-1,4-2,5.34-2.88a11.66,11.66,0,0,1,7.82-1.19c3.9.87,6.15,2.12,9.86,2.5,2.23.23,4.54,0,6.88.38.38.06,1.14-.13,1.58.31a7.06,7.06,0,0,1,1,1.9,32.31,32.31,0,0,1,3.38,12c0,.58-.51.6-.82,1.1a6.9,6.9,0,0,0-1.06,2c-.12.65-.37,1,.3,1.48s1.75.32,2.61.58c.25.07.37.22.67.6a8.3,8.3,0,0,1,1.07,2.22c.1.55,0,.84.12,1.25s.41.58.55.95a35.09,35.09,0,0,1,1.77,6.69c0,.16.08.33.1.5s0,.37,0,.51c.22,2.61.58,5.14,1,7.72.88-1,1.32-1.68,2.34-2.78s2.65-2.46,3.76-3.73c.58-.67.44-1.63,1.1-2.36,4-4.36,8.47-8.45,12.31-12.94.66-.77.47-1.75,1.09-2.5a30.57,30.57,0,0,1,2.49-1.94c2.11-2.1,3.62-5,5.22-7.25s3.19-4.45,5.52-5.43c6.25-2.62,12.26-3.28,18.85-4,.87-.09,1.71.07,2.69.06,2.66,0,7.08.81,9.44.75a17.07,17.07,0,0,1,10.64,4c4,3.65,5.48,6.27,9.44,9.26,2.39,1.79,5,3.57,7.46,5.53C584.73,401.38,585.47,402.08,586,402.4Z"/><path d="M756.61,401.46a8,8,0,0,1-.22,1.2c-.46,2.16-.85,4.25-1.44,6.33a34.59,34.59,0,0,1-1.58,4c-.35.84-.76,1.58-1.14,2.56s-.69,2.11-1.06,3.25a18,18,0,0,1-1.37,3.53,36.48,36.48,0,0,1-2.23,3.14,45.41,45.41,0,0,0-3,4.34c-.36.65-.7,1.52-1.16,2.45a13.52,13.52,0,0,1-1.87,3.27,16.89,16.89,0,0,1-3.38,2.47,9.76,9.76,0,0,0-1.19.69,7.42,7.42,0,0,0-1.88,2c-.53.87-.87,1.69-1.38,2.68s-1.1,2.18-1.73,3.25c-.08.13-.15.25-.36.57a15.85,15.85,0,0,0-1,1.89c-.18.45,0,1-.29,1.34-2.51,3.18-5.15,5.43-8.06,8.33a88.14,88.14,0,0,0-10,12c-1.66,2.35-3.54,5.15-5.43,7.73s-4,5.72-5.87,8.5a92.43,92.43,0,0,1-6,8.27,17.86,17.86,0,0,1-3,2.41,24.55,24.55,0,0,0-3.79,4l-.14.22c-.88,1.37-1.73,2.83-2.58,4.18a79,79,0,0,1-5.78,8.24,35.32,35.32,0,0,1-2.88,2.86,64.57,64.57,0,0,0-8.55,9.84,30.89,30.89,0,0,0-2.28,5.12,65.5,65.5,0,0,1-5.16,9.67,27.93,27.93,0,0,1-2.06,2.48c-2.94,3.45-6,6.74-9.18,9.91-.46.45-1,.75-1.49,1.16a29.32,29.32,0,0,0-3.19,2.94s0,.15-.28.13a3.63,3.63,0,0,0-1.26.53,2.61,2.61,0,0,0-.28.21,6.88,6.88,0,0,0-1.67,2.68,5.41,5.41,0,0,0-.08,1.64,3.68,3.68,0,0,1,0,1.07,12.14,12.14,0,0,1-1.47,3c-1.77,2.45-3.56,4.79-5.34,7.34-2.36,3.38-4.85,6.85-7.36,10.25a2.84,2.84,0,0,0-.46.55,3.88,3.88,0,0,1-1.89,1.24c-5.24.22-10.32,0-15.5,0a107.87,107.87,0,0,0-13.55,1,29.17,29.17,0,0,0-3.87,1c-1.24.31-1.48.49-2.73.76s-2.24.36-3.82.65a40.91,40.91,0,0,0-5.48,1.13,44.15,44.15,0,0,0-6.09,2.68c-.74.39-1.56.86-2.37,1.21-4,1.73-8.27,3.43-12.36,5-2.14.79-4.3,1.53-6.34,2.22-1,.33-1.79.68-2.54,1s-.9.43-1.55.72-1,.5-1.77.83c-3.16,1.36-6.48,2.59-9.85,3.73a15.83,15.83,0,0,0-1.8.75c-1.61.82-3.35,1.88-4.92,2.76a24.72,24.72,0,0,1-4.77,2.44c-1.65.49-2.76.18-4.44,0-.84-.08-1.93-.37-2.88-.47a10.45,10.45,0,0,0-3.65.54c-.67.3-1.37.61-1.65.4-2.75-2.07-4.47-3.87-5.48-7.19-.81-2.69-.6-5.75-.8-8.6-.08-1.13,0-2.34-.1-3.52,0-.11,0-.2,0-.46a8,8,0,0,0,0-1.14c-.05-.45-.11-1.2-.17-1.75s-.13-1.36-.17-1.91a12.75,12.75,0,0,1,0-1.63,9.92,9.92,0,0,1,.14-1.05,11.88,11.88,0,0,0,.16-1.32,19.58,19.58,0,0,0-.29-3.3c-.14-.78-.31-1.2-.42-1.68s-.16-.54-.23-.89.06.17,0-.18-.2-.87-.28-1.18-.18-.36-.19-.63.27-.11.21-.5a11.7,11.7,0,0,0-.44-1.4,6.23,6.23,0,0,1-.29-1.4,9.31,9.31,0,0,1-.17-1.18,3.73,3.73,0,0,1,.3-1.25c1.88-5,3.83-10.13,5.64-15.19.9-2.53,1.64-5.13,2.49-7.65,1.11-3.3,2.24-6.44,3.58-9.66a13.39,13.39,0,0,1,.74-1.38c.25-.46.67-1.23.89-1.66s.42-.84.56-1.15-.13-.29,0-.48.29.2.38.06a19.13,19.13,0,0,0,1.15-2.14c.36-.75.53-1.15.87-2a30.72,30.72,0,0,1,1.41-3.41,18.6,18.6,0,0,1,1.72-2.26c2.44-3.11,4.92-6.29,7.09-9.5a20.69,20.69,0,0,0,1.73-3.87,22.41,22.41,0,0,1,1.24-2.94,17.59,17.59,0,0,1,2.08-2.59c.65-.76,1.23-1.34,1.78-2a24.5,24.5,0,0,0,1.57-2.12c2.15-3.35,4.11-6.65,6.11-10,1.67-2.81,3.24-5.55,5.05-8.29A32.39,32.39,0,0,1,553.8,481c1-1.13,2.1-2.21,3-3.38,2.16-2.88,4.13-5.85,6.1-8.82,1-1.55,2-3,3-4.53a5.92,5.92,0,0,1,.65-.76c.23-.27.54-.59.75-.85a10.19,10.19,0,0,0,.63-.9,2.81,2.81,0,0,1,.26-.38,20.2,20.2,0,0,1,2.15-1.82c.59-.46,1.17-.8,1.58-1.2a28.62,28.62,0,0,0,5.15-6.86c.28-.51.14-1,.31-1.4s.13-.22.42-.67.81-1,1.14-1.7.63-1.61.93-2.36a9.6,9.6,0,0,1,.74-1.85,17.27,17.27,0,0,1,2.07-2.94c.91-1,2.41-2.5,3.52-3.55a41.35,41.35,0,0,0,3.38-3.37,98.75,98.75,0,0,0,6-8.15c1.43-2.12,3-4.38,4.34-6.17,3.28-4.31,6.46-8.72,9.4-12.9,3.35-4.77,6.37-9.28,9.78-13.71a94.64,94.64,0,0,1,6.89-7.47c1-1,1.92-1.88,2.89-2.89.19-.2.47-.55.65-.7,3.92-3.13,7-5.69,12.24-6.32.68-.08,2,2,2.32,2.81a12.73,12.73,0,0,0,1.73,2.42,9.85,9.85,0,0,0,1.24,1.16c.39.4.62.44.92.89a10.34,10.34,0,0,1,.7,1.45,21.36,21.36,0,0,0,1.05,2.08,8.06,8.06,0,0,0,1.49,1.38,9.64,9.64,0,0,1,1.25,1.4,19.75,19.75,0,0,1,2.55,3.72,39,39,0,0,1,2.53,7.46,23.17,23.17,0,0,1,.1,7.15s-.06,0-.18.21a5.39,5.39,0,0,0-.6,1,9.73,9.73,0,0,0-.31,1.4,5.6,5.6,0,0,1-.28,1,25.72,25.72,0,0,0-.76,2.81,8.63,8.63,0,0,0,.07,2.48,9.22,9.22,0,0,1,.15,1,43.83,43.83,0,0,1-1.26,7.71c-.31,1.23-.67,2.45-1,3.67a71.45,71.45,0,0,1-2.55,7.13,2.42,2.42,0,0,1-.4.33,6.34,6.34,0,0,0-1.21,1.57c-.15.4-.32.8-.45,1.09a12.11,12.11,0,0,1-1.74,3,19.59,19.59,0,0,1-2.31,2c-.87.76-1.91,1.55-2.77,2.42s-1.85,2-2.64,2.89-1.44,1.64-2.23,2.47-1.68,1.63-2.51,2.41-1.53,1.43-2.38,2.24a7.71,7.71,0,0,0-1,1.35,5.21,5.21,0,0,0-.34,1.18c0,.23,0,.31-.07.35a6.87,6.87,0,0,1-1.48,2.13,8.83,8.83,0,0,1-1.83,1.05c-.66.37-1.48.67-2.09,1.1a33.93,33.93,0,0,0-6.81,6.33,27.26,27.26,0,0,0-1.94,3.28,38.18,38.18,0,0,1-3.56,5.26c-.82,1-1.75,1.74-2.63,2.66-3,3.08-5.92,6.21-8.61,9.52-4.51,5.57-9,11-13.87,16.35a25.75,25.75,0,0,0-2.45,3.19,9.65,9.65,0,0,0-.73,1.62,8.05,8.05,0,0,1-.45,1.08c-2,2.84-3.89,5.39-6.15,8.06-.72.86-1.86,1.51-2.66,2.5s-1.58,2.36-2.44,3.45a14.71,14.71,0,0,0-1,1.22c-.3.49-.42,1.18-.78,1.7-.76,1.08-1.81,2-2.53,3.16a10.11,10.11,0,0,0-.48,1.47,9.42,9.42,0,0,1-.75,1.4,10.41,10.41,0,0,0-1.81,3.49c-.18,1.13.13,1.36.78,2.12a3.91,3.91,0,0,0,2.27,1.39,11.71,11.71,0,0,0,3.89.12,10.47,10.47,0,0,0,1.49-.37c.37-.11.45-.15.78-.23a10,10,0,0,1,1-.15c.35-.06.64-.08,1-.17l.92-.22a13.17,13.17,0,0,0,2.13-.55c.75-.29,1.78-.8,2.62-1.2A23.9,23.9,0,0,1,585,538.8c3.57-1.36,7.38-2.72,11.16-3.84.79-.24,2.1-.58,2.87-.76a43.14,43.14,0,0,1,6.1-.83,4,4,0,0,0,3.23-1.74c.86-1.2,2.09-3.53,2.77-4.53a20.94,20.94,0,0,1,1.43-1.82c.47-.59.68-.74,1.06-1.19.82-1,1.38-1.54,2.27-2.49s1.87-1.91,2.77-3.07c1.41-1.82,2.77-3.68,4.27-5.62s3.17-4.11,4.82-6.09a8.3,8.3,0,0,1,1.16-1c.34-.24.86-.68,1.13-.91s.53-.44.69-.6a38.54,38.54,0,0,0,4.69-5.06A19.8,19.8,0,0,0,637,496a13.5,13.5,0,0,1,1.6-3.05,25.94,25.94,0,0,1,3.23-2.93,30.51,30.51,0,0,0,3.05-2.6,125.3,125.3,0,0,0,8.84-11c.91-1.25,2.1-3,2.9-4.19,4.37-6.28,8.56-12.28,13-18.39.84-1.16,1.71-2.16,2.63-3.29s1.93-2.36,2.83-3.54l.11-.14c.85-1.11,1.7-2.16,2.66-3.2.13-.14.37-.26.49-.48s.15-.47.29-.75a6.36,6.36,0,0,1,.79-1c.21-.21.23-.24.41-.44l.6-.65c.2-.19.41-.25.58-.49a5.47,5.47,0,0,0,.33-.81,3.57,3.57,0,0,1,.47-1c.24-.26.5-.3.78-.54a7.5,7.5,0,0,0,.88-1,9.46,9.46,0,0,1,.64-.74c.24-.27.49-.52.73-.83a7.94,7.94,0,0,0,.64-1.14,5.57,5.57,0,0,1,.72-.89l.53-.59c3.93-4.73,7.82-9.53,11.44-14.44,1.94-2.64,3.71-5.18,5.65-7.78.84-1.12,1.68-2.22,2.49-3.38,2.31-3.28,4.53-6.63,6.75-10,1.4-2.11,2.67-4.18,4.15-6.3s3.26-4.26,5-6.23a6.48,6.48,0,0,1,.84-1c1.21-.85,1.49-1.55,3.13-1.74a30.35,30.35,0,0,1,5.49.2c.84.07,1.85.19,2.9.28,2.06.18,4.28.41,6.46.63,2.87.3,5.91.58,8.85.82a.68.68,0,0,1,.35.07,6.39,6.39,0,0,0,.7.32c.33.13,1.34.37,1.7.46s.39,0,.63.21a2.18,2.18,0,0,1,.42.88,69.41,69.41,0,0,1,2.58,7.48A31.18,31.18,0,0,1,756.61,401.46Z"/><path d="M958.81,386.8h0a9.17,9.17,0,0,0-1.15,1.67l-.27.59-.6.28a26.9,26.9,0,0,1-8.59,2l-2.05.25a33.05,33.05,0,0,0-6.32,1.75l-1.49.51a11,11,0,0,1-3.34.52h-.19l0,1.28a8.56,8.56,0,0,0,.11,1,6.06,6.06,0,0,1-.25,3.49l-.22.51-.48.3c-5.14,3.23-10.17,3.28-14.89,3a28.55,28.55,0,0,1-9.15,1.61,78.28,78.28,0,0,1-7.94,1.77l-.11,1.22c-.45,3.25-3.21,7.39-5,9.15a8.55,8.55,0,0,1-6.92,2.62h-.24a17.75,17.75,0,0,0-2,.08l-1.18.17a12.24,12.24,0,0,1-3.19.24,9.64,9.64,0,0,1-2.87-.8,6.92,6.92,0,0,0-1.85-.57,5.74,5.74,0,0,0-1.33.15,6.78,6.78,0,0,1-3.42,0,6.11,6.11,0,0,1-2-1.21,3.41,3.41,0,0,0-.86-.58c-.28.09-.64.63-1,1.12a6,6,0,0,1-2.61,2.53,41,41,0,0,1-9.38,2.39c-1.27.21-2.46.42-3.63.67-5,1.08-10.2,2.25-16.29,3.7-5.85,1.39-11.77,2.86-17.51,4.29l-.27.07c-6.91,1.72-14.05,3.5-21.13,5.15a3.85,3.85,0,0,0-1,.59,5.57,5.57,0,0,1-3,1.24,3.29,3.29,0,0,1-2.32-.9,8.23,8.23,0,0,0,.66,2.39,4.64,4.64,0,0,0,2.68,3,22.59,22.59,0,0,0,6.21,1.1,39.33,39.33,0,0,1,4.21.51c6.93,1.36,13.43,2.81,20.31,4.34l4.5,1c2.58.56,5.25,1.14,7.88,1.8a34.57,34.57,0,0,1,3.84,1.28,22.61,22.61,0,0,0,4.7,1.39,27,27,0,0,1,4.39,1c.78.23,1.56.46,2.37.64a8.11,8.11,0,0,0,2.81-.06,13.17,13.17,0,0,1,3.25-.15,22,22,0,0,1,3.36.73,19.51,19.51,0,0,0,2.72.6,11.59,11.59,0,0,1,6.56,3.09,3.8,3.8,0,0,0,2.33,1.14l.05,0a3.7,3.7,0,0,1,2-.76,9.14,9.14,0,0,1,2.79.5c.33.1.64.2,1,.27,6.44,1.47,11.51,2.68,18.71,4.47.7.17,1.56.33,2.55.52,5,.94,11.77,2.23,14,7.1A5.87,5.87,0,0,1,917,478c0,.26-.06.46-.07.66a21.53,21.53,0,0,0,.18,3.66,15.09,15.09,0,0,1-.55,7.43,49.22,49.22,0,0,1-4.89,8.69,43.89,43.89,0,0,0-4.84,8.77c-.17.47-.31,1-.46,1.44a10.49,10.49,0,0,1-4.62,6.83l-.61.47a42.82,42.82,0,0,0-4.73,4.7,41.13,41.13,0,0,1-5.8,5.61c-4.45,3.29-9.73,4.74-14.39,6a19.41,19.41,0,0,1-4,.57,18.56,18.56,0,0,0-2.4.25,14.15,14.15,0,0,0-2.08.62c-.48.18-1,.35-1.47.49a4.16,4.16,0,0,1-2.73-.11,2.8,2.8,0,0,0-.67-.16,5.34,5.34,0,0,0-1.83.93l-.35.23a20.4,20.4,0,0,0-1.8,1.38,12.17,12.17,0,0,1-4.53,2.65c-2.83.92-5.86,1.66-8.79,2.38-3.22.79-6.53,1.59-9.6,2.63-9,3-16.37,5.72-23.22,8.46-13.87,5.54-27.32,11.55-41,17.74-5.1,2.31-10.4,4.66-15.52,7l-5.28,2.34c-.53.24-1.08.5-1.63.77a19.5,19.5,0,0,1-6.89,2.31c-.59,0-1.1,0-1.6,0a5.64,5.64,0,0,0-2.59.41,7.4,7.4,0,0,0-.91.57,6.92,6.92,0,0,1-2.9,1.34,10.37,10.37,0,0,1-2.35,0,3.2,3.2,0,0,0-2.31.34,9.86,9.86,0,0,0-1.9,2,12.63,12.63,0,0,1-3.17,3.09,41.27,41.27,0,0,1-5.73,2.74c-.81.34-1.6.67-2.38,1s-1.87.91-2.78,1.4c-1.2.63-2.44,1.29-3.74,1.82a11.07,11.07,0,0,1-2.48.64,9.88,9.88,0,0,0-1.39.31,4.23,4.23,0,0,0-.57.22,4.89,4.89,0,0,1-3,.45,5.78,5.78,0,0,1-1.73-.72,2.7,2.7,0,0,0-.73-.35,4,4,0,0,0-3.12.72,13.09,13.09,0,0,0-1.23,1.45,8.79,8.79,0,0,1-3.53,3.07,8,8,0,0,1-1.41.43,3.12,3.12,0,0,0-1,.37,17.6,17.6,0,0,0-2.23,1.6A29,29,0,0,1,681.4,610c-.36.19-.76.44-1.18.71-1.44.91-3.19,2-5.21,2a5.27,5.27,0,0,1-1.54-.23l-1.69-.51.46-1.69c1-3.79,2.2-6.46,5-8.88a14,14,0,0,1,4.57-2.93,6.17,6.17,0,0,1,2.78-.08c.34,0,.56.07.72.08a2.38,2.38,0,0,1,.74-1.36,2.83,2.83,0,0,1,1.55-.68l.44-.25c.13-.07.33-.18.38-.22a2.71,2.71,0,0,0,.12-.6,3.89,3.89,0,0,1,1.5-2.8,3.57,3.57,0,0,1,2.45-.62,2.79,2.79,0,0,0,.39,0c.5-.19.65-.43,1.07-1.67a10.51,10.51,0,0,1,1-2.25c1.11-1.87,3.05-2.67,4.6-3.32l1.05-.45,1.78-.84c5.45-2.56,10.56-5,16.19-7,.34-.12.79-.24,1.27-.36a10,10,0,0,0,1.8-.57,3.72,3.72,0,0,0,.74-1,5.54,5.54,0,0,1,2.12-2.27,9.34,9.34,0,0,1,3-1,12.13,12.13,0,0,0,1.52-.37c.84-.31,1.7-.61,2.56-.9,2.06-.72,4.12-1.44,6.06-2.25a32.51,32.51,0,0,0,3.47-1.78c.91-.52,1.8-1,2.73-1.47.65-.31,1.25-.55,1.83-.77a6.55,6.55,0,0,0,3.28-2.14c.2-.25.39-.5.55-.74a5.62,5.62,0,0,1-.61.53,23.94,23.94,0,0,1-5.87,2.75c-.75.27-1.51.54-2.26.85-2.82,1.15-5.16,2.19-7.82,3.47-.37.18-1.76.72-2.6,1-2.43.92-3,1.13-3.88.54l-.22-.16-1-.23a.94.94,0,0,0-.27,0,5.9,5.9,0,0,0-.68,1.06,7,7,0,0,1-2.07,2.62c-3.17,2.24-6.77,3.24-10.26,4.2-.84.24-1.62.45-2.38.68a4.43,4.43,0,0,1-1.64.11h-.1l-.14.11a2.79,2.79,0,0,1-1.34.63c-1.93.24-3.43-.34-4.1-1.59-.31-.56-.82-2.09.9-4a4.15,4.15,0,0,1,3-1.24,3.74,3.74,0,0,0,.79-.11,5.56,5.56,0,0,0,1.11-.69,9,9,0,0,1,2-1.18,4.28,4.28,0,0,1,2-.24,2.33,2.33,0,0,0,.45,0c-.06,0,0-.23.1-.36a5,5,0,0,1,1.11-1.75,5.61,5.61,0,0,1,2.19-1.21,7.72,7.72,0,0,0,.77-.31,6.14,6.14,0,0,1,.91-.35,8.34,8.34,0,0,0-3.14-.55L706.09,569l6.23-6.48c3.17-3.3,7.93-4.34,11.23-4.83a4.48,4.48,0,0,1,2.66.39l.15.07c.38,0,.44-.14.82-1a7.64,7.64,0,0,1,1.22-2,4.58,4.58,0,0,1,2.14-1.32,2.39,2.39,0,0,0,.63-.26,6.18,6.18,0,0,0,.7-.55,6.32,6.32,0,0,1,2.36-1.47,7.76,7.76,0,0,1,2-.26,4.7,4.7,0,0,0,1.09-.1,2.53,2.53,0,0,1,1.14-1.33,2.32,2.32,0,0,1,2-.08,2.51,2.51,0,0,1,.44-.7c1.42-1.6,3.58-3.48,5.75-3.27s3,1.34,3.26,2.48c.07-.08.14-.17.22-.25a5.86,5.86,0,0,1,3.09-1.48,7,7,0,0,0,.85-.24c.88-.42,1.82-.89,2.66-1.31l1.14-.57a10.39,10.39,0,0,0,4.06-3,22.43,22.43,0,0,1,8.37-6.19l4-1.84c1.86-.85,3.75-1.7,5.57-2.55,7-3.24,14.31-6.45,20.73-9.28l1.43-.63c3.12-1.38,6.27-2.77,9.33-4a30.25,30.25,0,0,0,3-1.46,27.37,27.37,0,0,1,3.28-1.59c2-.76,2.47-1.1,3.51-2.79l.47-.79.94-.08a6.29,6.29,0,0,1,3.46.92,4,4,0,0,0,1.44.55c.49.05.79-.23,1.69-1.12a11.21,11.21,0,0,1,1.84-1.55,6.62,6.62,0,0,1,2.45-.84c.32-.06.58-.11.84-.18,3.41-.93,5.06-1.41,9-2.58l.8-.23c3-.87,8.66-2.49,8.42-6a.57.57,0,0,0,0-.18,5.25,5.25,0,0,0-1.16-.33,10.54,10.54,0,0,1-1.44-.38c-1.45-.54-2.86-1.17-4.23-1.78a46.68,46.68,0,0,0-6.2-2.41c-2.69-.75-5.46-1.44-8.14-2.1-4.5-1.12-9.11-2.27-13.57-3.74a36.51,36.51,0,0,0-5.69-1.24l-1.93-.33c-1.48-.27-3-.6-4.43-.93-1.73-.39-3.52-.79-5.25-1.06-3-.47-5.84-1.1-8.64-1.7l-1.22-.27a18.17,18.17,0,0,1-6.18-2.17c-2.63-1.61-4.21-1.23-7.66-.4l-.52.13c-3.38.8-6.83.11-10.17-.57l-1.48-.29a33.94,33.94,0,0,0-4.66-.45,25.81,25.81,0,0,1-7.78-1.2,20.77,20.77,0,0,1-5.64-3.48,32.62,32.62,0,0,0-2.83-2.05,20.69,20.69,0,0,0-2.26-1.12,23,23,0,0,1-2.77-1.38,7.71,7.71,0,0,1-4-5.86,8.91,8.91,0,0,1,.62-3.7c.14-.41.25-.75.33-1.09a19.41,19.41,0,0,0,.28-4.94,24,24,0,0,1,.16-4.65,39.91,39.91,0,0,1,3-9.37c1.37-3.25,2.66-6.3,2.92-9.79a13.25,13.25,0,0,1,1.87-5.73,10.44,10.44,0,0,1,4.24-3.33,13.61,13.61,0,0,0,1.46-.82c9.08-6.39,18.72-10.27,29.47-14.33,9.89-3.73,19.09-6.8,28.11-9.38a7.67,7.67,0,0,1,2.92-.2,4.92,4.92,0,0,0,1.39,0,3.46,3.46,0,0,0,1.19-.68,9.33,9.33,0,0,1,1.54-1,25.82,25.82,0,0,1,6.52-1.76c.68-.12,1.35-.24,2-.37l3.58-.76c4.25-.92,8.25-1.78,12.44-2.46,2-.33,4.08-.6,6.06-.86,3.23-.42,6.56-.86,9.76-1.57.44-.09.86-.2,1.26-.3a14.64,14.64,0,0,1,4.83-.65,10.69,10.69,0,0,1,2,.39c.29.08.57.16.84.21l4,.82a24.15,24.15,0,0,1,2.81-.57l1.14-.2.37-.07.73-.14a29.4,29.4,0,0,0,5.66-1.81l.53-.16c.77,0,1.35,0,1.9-.08a5,5,0,0,1,1.39-.58,2.73,2.73,0,0,1,2,.31l2.37-.18c1.94-.15,3.94-.3,5.93-.41,3.94-.22,8-.35,11.84-.47l2.48-.08c.93-.24,1.74-.45,2.56-.64a3.45,3.45,0,0,1,3.74.32c.82-.07,1.63-.11,2.43-.15l1.47-.08a1.77,1.77,0,0,0,.32-.09l.56-.16c.33-.07.65-.16,1-.25a13.24,13.24,0,0,1,2.55-.51,20.27,20.27,0,0,1,2.06,0,12.22,12.22,0,0,0,2.2-.05,9.37,9.37,0,0,0,1-.22,9.52,9.52,0,0,1,1.95-.36,8,8,0,0,1,1.82.14,5.2,5.2,0,0,0,1,.11c.51,0,1-.08,1.52-.14a14.17,14.17,0,0,1,3.81-.06,4.47,4.47,0,0,1,1.37.51,2.12,2.12,0,0,0,.27.13,3.61,3.61,0,0,0,.6-.1,6.76,6.76,0,0,1,1.48-.16,13.43,13.43,0,0,1,1.8.22,6,6,0,0,0,2.17.1,13.59,13.59,0,0,0,1.6-.45,16,16,0,0,1,2.64-.68c.89-.12,1.8-.29,2.68-.45a27.91,27.91,0,0,1,7.25-.68l1.05.08.46.94C961.37,383.61,959.89,385.45,958.81,386.8Z"/></svg>